<?xml version="1.0" encoding="utf-8"?>
<!-- Generator: Adobe Illustrator 21.0.0, SVG Export Plug-In . SVG Version: 6.00 Build 0)  -->
<svg version="1.1" id="图层_1" xmlns="http://www.w3.org/2000/svg" xmlns:xlink="http://www.w3.org/1999/xlink" x="0px" y="0px"
	 viewBox="0 0 1414 375" style="enable-background:new 0 0 1414 375;" xml:space="preserve">
<style type="text/css">
	.st0{fill:none;}
	.st1{fill:url(#Rectangle-2_2_);}
	.st2{opacity:0.3762;fill:url(#Oval-7_1_);enable-background:new    ;}
	.st3{fill:url(#Combined-Shape_11_);}
	.st4{fill:url(#Oval_1_);}
	.st5{opacity:0.7632;fill:url(#Oval-2_3_);enable-background:new    ;}
	.st6{opacity:0.7632;fill:url(#Oval-2_4_);enable-background:new    ;}
	.st7{fill:url(#Oval-2_5_);}
	.st8{fill:#3368A6;}
	.st9{fill:url(#Combined-Shape_12_);}
	.st10{fill:url(#Path-Copy-4_2_);}
	.st11{fill:#ECECD2;}
	.st12{opacity:0.7957;fill:url(#Combined-Shape_13_);enable-background:new    ;}
	.st13{fill:url(#Shape_3_);}
	.st14{fill:none;stroke:url(#Oval-4_1_);stroke-width:6;}
	.st15{opacity:0.6579;}
	.st16{fill:#FFFFFF;}
	.st17{fill:url(#_x31_0101010-10111010101-copy_1_);}
	.st18{opacity:0.1269;fill:url(#Rectangle-10_1_);enable-background:new    ;}
	.st19{opacity:0.1394;fill:url(#Rectangle-5_1_);enable-background:new    ;}
	.st20{fill:url(#Rectangle-12_1_);}
	.st21{fill:#196EC9;}
	.st22{fill:#2A78CA;}
	.st23{fill:#2E93EF;}
	.st24{fill:#2C96F4;}
	.st25{fill:#74B9FA;}
	.st26{fill:#A7D2FC;}
	.st27{fill:#4A6999;}
	.st28{fill:#74BBFD;}
	.st29{fill:url(#Oval-5_1_);}
	.st30{fill:#E5D5C4;stroke:url(#Oval-13_2_);stroke-width:2;}
	.st31{fill:#E5D5C4;stroke:url(#Oval-13_3_);}
	.st32{fill:#E5D5C4;stroke:url(#Oval-13-Copy-4_1_);}
	.st33{fill:#E1D2C1;stroke:url(#Oval-13-Copy-5_1_);stroke-width:2;}
	.st34{fill:#DBCCBC;stroke:url(#Oval-13-Copy-6_1_);}
	.st35{fill:#E5D5C4;stroke:url(#Oval-13-Copy-7_1_);}
	.st36{fill:#E5D5C4;stroke:url(#Oval-13-Copy-9_1_);}
	.st37{fill:#E5D5C4;stroke:url(#Oval-13-Copy-8_1_);}
	.st38{fill:#E5D5C4;stroke:url(#Oval-13-Copy-2_1_);}
	.st39{fill:#567CA0;}
	.st40{fill:url(#Combined-Shape_14_);}
	.st41{fill:url(#Combined-Shape_15_);}
	.st42{fill:#3096FA;}
	.st43{fill:#D7EAFB;}
	.st44{fill:#436B93;}
	.st45{fill:#9FCFFF;}
	.st46{fill:url(#Rectangle-36_1_);}
	.st47{opacity:0.8882;fill:#C4DCFE;enable-background:new    ;}
	.st48{opacity:0.6624;fill:#3096FA;enable-background:new    ;}
	.st49{fill:#EBF3FD;}
	.st50{fill:#379CFF;}
	.st51{fill:#5FACF7;}
	.st52{fill:url(#Rectangle-26_1_);}
	.st53{fill:#244668;}
	.st54{fill:url(#Combined-Shape_16_);}
	.st55{fill:#FFFDFB;stroke:#436B93;stroke-width:1.5;}
	.st56{fill:#FFFFFF;stroke:#D6D1E2;stroke-width:2;}
	.st57{fill:url(#Oval-24_2_);}
	.st58{fill:#FFFDFB;stroke:#567CA0;stroke-width:1.5;}
	.st59{fill:url(#Oval-24_3_);}
	.st60{opacity:0.3868;fill:#FF856D;enable-background:new    ;}
	.st61{fill:#FF856D;}
	.st62{opacity:0.3868;fill:#47B9F3;enable-background:new    ;}
	.st63{fill:#47B9F3;}
	.st64{opacity:0.3868;fill:#5764C6;enable-background:new    ;}
	.st65{fill:#5764C6;}
	.st66{fill:url(#Oval-17_2_);}
	.st67{fill:url(#Oval-17-Copy-2_1_);}
	.st68{fill:url(#Oval-17_3_);}
	.st69{fill:#FFEEEA;}
	.st70{enable-background:new    ;}
</style>
<title>Artboard Copy</title>
<desc>Created with Sketch.</desc>
<rect x="817" y="932.8" class="st0" width="4.8" height="12.8"/>
<g>
	
		<linearGradient id="Rectangle-2_2_" gradientUnits="userSpaceOnUse" x1="47.8905" y1="0.7221" x2="48.8013" y2="1.3456" gradientTransform="matrix(1474 0 0 629.5755 -70704 -391.9988)">
		<stop  offset="0" style="stop-color:#804B78"/>
		<stop  offset="0.4242" style="stop-color:#2F407A"/>
		<stop  offset="1" style="stop-color:#180B46"/>
	</linearGradient>
	<rect id="Rectangle-2" x="-5" y="-5" class="st1" width="1474" height="629.6"/>
	
		<radialGradient id="Oval-7_1_" cx="47.412" cy="0.9567" r="0.8383" gradientTransform="matrix(110.0943 -338.8354 613.1488 199.2241 -4368.2539 15769.001)" gradientUnits="userSpaceOnUse">
		<stop  offset="0" style="stop-color:#1A165A"/>
		<stop  offset="0.6331" style="stop-color:#1A2773;stop-opacity:0"/>
		<stop  offset="0.8032" style="stop-color:#079FFF;stop-opacity:0.3519"/>
		<stop  offset="0.9053" style="stop-color:#0B76FF;stop-opacity:0.3702"/>
		<stop  offset="1" style="stop-color:#101E56;stop-opacity:0"/>
	</radialGradient>
	<path id="Oval-7" class="st2" d="M922.1-263.7c-14.6,45.1-10.2,93.4,10.7,140.9c18.2,41.6,48.8,82.3,89.6,120.9
		c78.6,74.3,193.3,138.8,323.3,181.1s260.7,57.5,368,43.5c55.6-7.2,104.4-22.2,143.6-45.1c44.8-26.2,76.8-62.6,91.5-107.7
		c11.3-34.6-8.2-72-43.5-83.5s-73,7.3-84.3,41.9c-4.1,12.7-14.6,24.7-33.1,35.5c-22.4,13.1-54.2,22.9-93.1,28
		c-86,11.2-196.6-1.7-308.2-38C1274.8,17.5,1177.8-37,1114.8-96.6c-28.5-27-48.5-53.6-58.9-77.4c-8.6-19.6-10.1-35.4-5.9-48.2
		c11.3-34.6-8.2-72-43.5-83.5S933.3-298.3,922.1-263.7z"/>
	
		<g id="点阵图" transform="translate(358.432509, 75.803187) rotate(85.000000) translate(-358.432509, -75.803187) translate(311.932509, 34.303187)">
		
			<linearGradient id="Combined-Shape_11_" gradientUnits="userSpaceOnUse" x1="144.6118" y1="-126.5274" x2="143.6118" y2="-125.0443" gradientTransform="matrix(92.5313 5.556310e-05 -6.249682e-05 81.8425 -13334.8857 10413.043)">
			<stop  offset="0" style="stop-color:#464379"/>
			<stop  offset="1" style="stop-color:#FFFFFF"/>
		</linearGradient>
		<path id="Combined-Shape" class="st3" d="M44.7,3.9c-1,0-1.8-0.8-1.8-1.7c0-1,0.8-1.8,1.7-1.8c1,0,1.8,0.8,1.8,1.7
			C46.5,3,45.7,3.8,44.7,3.9z M2,82.2c-1,0-1.8-0.8-1.8-1.7c0-1,0.8-1.8,1.7-1.8c1,0,1.8,0.8,1.8,1.7C3.7,81.4,3,82.2,2,82.2z
			 M63.1,34.1c-1,0-1.8-0.8-1.8-1.7c0-1,0.8-1.8,1.7-1.8c1,0,1.8,0.8,1.8,1.7C64.8,33.3,64.1,34.1,63.1,34.1z M20,49.2
			c-1,0-1.8-0.8-1.8-1.7c0-1,0.8-1.8,1.7-1.8c1,0,1.8,0.8,1.8,1.7C21.8,48.4,21,49.2,20,49.2z M27.8,34.7c-1,0-1.8-0.8-1.8-1.7
			c0-1,0.8-1.8,1.7-1.8c1,0,1.8,0.8,1.8,1.7C29.5,33.9,28.7,34.7,27.8,34.7z M35.9,20.1c-1,0-1.8-0.8-1.8-1.7c0-1,0.8-1.8,1.7-1.8
			c1,0,1.8,0.8,1.8,1.7C37.7,19.3,36.9,20.1,35.9,20.1z M54.4,19.8c-1,0-1.8-0.8-1.8-1.7c0-1,0.8-1.8,1.7-1.8c1,0,1.8,0.8,1.8,1.7
			C56.2,19,55.4,19.8,54.4,19.8z M10.9,65.6c-1,0-1.8-0.8-1.8-1.7c0-1,0.8-1.8,1.7-1.8c1,0,1.8,0.8,1.8,1.7
			C12.6,64.8,11.8,65.6,10.9,65.6z M71.5,48.3c-1,0-1.8-0.8-1.8-1.7c0-1,0.8-1.8,1.7-1.8c1,0,1.8,0.8,1.8,1.7S72.5,48.2,71.5,48.3z
			 M81,64.3c-1,0-1.8-0.8-1.8-1.7s0.8-1.8,1.7-1.8c1,0,1.8,0.8,1.8,1.7C82.7,63.5,82,64.3,81,64.3z M91,80.6c-1,0-1.8-0.8-1.8-1.7
			c0-1,0.8-1.8,1.7-1.8c1,0,1.8,0.8,1.8,1.7C92.7,79.7,92,80.5,91,80.6z M45,34.4c-1,0-1.8-0.8-1.8-1.7c0-1,0.8-1.8,1.7-1.8
			c1,0,1.8,0.8,1.8,1.7C46.8,33.6,46,34.4,45,34.4z M36.5,48.9c-1,0-1.8-0.8-1.8-1.7c0-1,0.8-1.8,1.7-1.8c1,0,1.8,0.8,1.8,1.7
			C38.2,48.1,37.5,48.9,36.5,48.9z M56.5,48.5c-1,0-1.8-0.8-1.8-1.7c0-1,0.8-1.8,1.7-1.8s1.8,0.8,1.8,1.7
			C58.2,47.7,57.4,48.5,56.5,48.5z M28.7,65.3c-1,0-1.8-0.8-1.8-1.7c0-1,0.8-1.8,1.7-1.8c1,0,1.8,0.8,1.8,1.7
			C30.4,64.4,29.6,65.2,28.7,65.3z M46.1,65.7c-1,0-1.8-0.8-1.8-1.7c0-1,0.8-1.8,1.7-1.8c1,0,1.8,0.8,1.8,1.7
			C47.9,64.9,47.1,65.7,46.1,65.7z M64.7,64.6c-1,0-1.8-0.8-1.8-1.7c0-1,0.8-1.8,1.7-1.8c1,0,1.8,0.8,1.8,1.7
			C66.4,63.8,65.7,64.6,64.7,64.6z M19.7,81.9c-1,0-1.8-0.8-1.8-1.7c0-1,0.8-1.8,1.7-1.8c1,0,1.8,0.8,1.8,1.7
			C21.5,81,20.7,81.8,19.7,81.9z M70,80.9c-1,0-1.8-0.8-1.8-1.7c0-1,0.8-1.8,1.7-1.8c1,0,1.8,0.8,1.8,1.7C71.8,80.1,71,80.9,70,80.9
			z M46.5,81.4c-1,0-1.8-0.8-1.8-1.7c0-1,0.8-1.8,1.7-1.8c1,0,1.8,0.8,1.8,1.7C48.2,80.5,47.5,81.4,46.5,81.4z"/>
	</g>
	
		<g id="月球" transform="translate(1210.000000, 109.500000) scale(-1, 1) translate(-1210.000000, -109.500000) translate(1120.000000, 37.000000)">
		<g id="Group-2" transform="translate(0.000000, 14.992006)">
			
				<radialGradient id="Oval_1_" cx="1.0624" cy="3.8794" r="0.8835" gradientTransform="matrix(105.6473 0 0 105.6473 -12.0963 -376.9878)" gradientUnits="userSpaceOnUse">
				<stop  offset="0" style="stop-color:#EAE0AD"/>
				<stop  offset="0.4821" style="stop-color:#FFC288"/>
				<stop  offset="1" style="stop-color:#FF9266"/>
			</radialGradient>
			<circle id="Oval" class="st4" cx="88.7" cy="67.8" r="52.8"/>
			
				<linearGradient id="Oval-2_3_" gradientUnits="userSpaceOnUse" x1="3.7035" y1="27.5338" x2="3.3403" y2="28.3695" gradientTransform="matrix(14.3135 0 0 14.3135 68.3153 -332.0106)">
				<stop  offset="0" style="stop-color:#F48374"/>
				<stop  offset="1" style="stop-color:#DF917B"/>
			</linearGradient>
			<circle id="Oval-2" class="st5" cx="123.5" cy="67.1" r="7.2"/>
			
				<linearGradient id="Oval-2_4_" gradientUnits="userSpaceOnUse" x1="3.1052" y1="23.155" x2="2.495" y2="24.1618" gradientTransform="matrix(17.0399 0 0 17.0399 10.3574 -301.348)">
				<stop  offset="0" style="stop-color:#FF6B6B"/>
				<stop  offset="1" style="stop-color:#D58E81"/>
			</linearGradient>
			<circle id="Oval-2_1_" class="st6" cx="66.9" cy="99.2" r="8.5"/>
			
				<linearGradient id="Oval-2_5_" gradientUnits="userSpaceOnUse" x1="10.4163" y1="82.3044" x2="10.0531" y2="83.1401" gradientTransform="matrix(4.7712 0 0 4.7712 79.1707 -341.5732)">
				<stop  offset="0" style="stop-color:#F4967C"/>
				<stop  offset="1" style="stop-color:#E69C7F"/>
			</linearGradient>
			<circle id="Oval-2_2_" class="st7" cx="129.6" cy="52.8" r="2.4"/>
			<path id="Combined-Shape_1_" class="st8" d="M114.4,19.3c22.8,0.6,40.3,9,44.8,22.1c7,20.4-21.2,46.5-62.3,60.7
				c-29.4,10.1-55.6,10.5-72,2.2c16.5,6,40.8,4.7,68.2-4.7c41.1-14.2,67-38.8,60.5-57.7c-3.8-10.9-17.4-18.6-36.2-20.5L114.4,19.3z"
				/>
			
				<linearGradient id="Combined-Shape_12_" gradientUnits="userSpaceOnUse" x1="-9.667212e-03" y1="4.8024" x2="-9.667212e-03" y2="5.802" gradientTransform="matrix(152.6714 -52.569 26.1849 76.0464 -47.707 -338.7864)">
				<stop  offset="0" style="stop-color:#273171"/>
				<stop  offset="0.4135" style="stop-color:#88DFFF"/>
				<stop  offset="1" style="stop-color:#35ABE6"/>
			</linearGradient>
			<path id="Combined-Shape_2_" class="st9" d="M166.1,39.1c7.5,21.9-21.9,49.6-64.1,64.1c-38.3,13.2-75.2,9.1-87.3-8.1
				c11.5,15.8,46.7,19.2,83.3,6.6c40.5-13.9,68.3-39.8,61.3-60.1c-4.5-13-21.7-21.3-44.2-22c-2.1-1.3-4.4-2.6-6.8-3.6
				C137,14.2,160.7,23.2,166.1,39.1z"/>
		</g>
		
			<g id="大象" transform="translate(87.190209, 47.562475) rotate(-10.000000) translate(-87.190209, -47.562475) translate(53.690209, 6.062475)">
			
				<linearGradient id="Path-Copy-4_2_" gradientUnits="userSpaceOnUse" x1="140.4983" y1="-175.0046" x2="140.0418" y2="-175.5992" gradientTransform="matrix(59.2701 -16.4335 21.5726 45.1505 -4521.2217 10275.7588)">
				<stop  offset="0" style="stop-color:#D58351;stop-opacity:0"/>
				<stop  offset="0.6166" style="stop-color:#E7A476;stop-opacity:0.6033"/>
				<stop  offset="1" style="stop-color:#CF7C61"/>
			</linearGradient>
			<path id="Path-Copy-4" class="st10" d="M65.2,65.8c-0.6-2-1.5-3.9-2.7-5.6c-1.1-1.5-2.5-2.8-4.2-3.8c-1.2-0.7-2.5-1.1-3.8-1.4
				c-1.4-0.3-2.7-0.3-4-0.3c-0.1-0.2-0.2-0.4-0.3-0.6c-0.1-0.2-0.2-0.5-0.3-0.7c-0.4-0.9-1.1-1.7-2-2.3C47,50.4,46,50,45.1,49.8
				c-0.9-0.1-1.5,0-2,0.3s-1,0.7-1.4,1.1l-0.6,0.6c-0.1,0.1-0.3,0.3-0.4,0.4c0-0.1-0.1-0.2-0.1-0.3c0.2-0.5,0.3-0.9,0.4-1.4
				c0.1-0.3,0.2-0.6,0.3-0.9c0.1-0.5,0.3-0.9,0.3-1.3c0.1-0.4,0.1-0.8,0-1.4l-0.1-1.3c0-0.4-0.1-0.8-0.1-1.3
				c0.1-0.3,0.2-0.5,0.2-0.8s0-0.5-0.1-1c-0.2-1-0.6-1.6-1.1-1.9c-0.5-0.3-1.2-0.5-2-0.5c-0.1,0-0.3,0-0.6-0.1
				c-0.8-0.1-2-0.2-2.4-0.2c-0.5,0-0.9,0-1.3,0c-0.3,0-0.5,0.1-0.6,0.2c-0.3-0.3-0.6-0.5-0.8-0.7c-0.8-0.7-1.5-1.4-1.8-1.6
				c-0.1-0.2-0.2-0.4-0.3-0.5c-0.3-0.6-0.6-1-1.3-1.4c-1.4-0.9-2.4-1-3.3-0.5c-0.8,0.5-1.5,1.4-2.1,2.5c-0.3,0.5-0.8,1.4-1.1,2.3
				c-0.2,1-0.1,2,0.9,2.6c0.3,0.2,0.4,0.2,0.5,0.3c-0.4-0.1-0.8-0.1-1.1-0.2c-0.8-0.1-1.5-0.1-2.2-0.1c0-0.1,0-0.2,0-0.2
				c0-0.5,0-0.8,0-1.2c-0.1-0.4-0.2-0.7-0.5-1.2c0,0-0.1-0.1-0.1-0.2c-0.3-0.4-0.5-0.7-0.9-1.6c0-0.4,0-0.7,0-1.1
				c0-0.4-0.1-0.7-0.3-1.2c-0.4-1.2-1.5-1.6-2.8-1.7c-1.2-0.1-2.4,0.2-3.1,0.3c-0.2,0-0.3,0-0.4,0.1c-0.6,0.1-1.3,0.2-1.8,0.4
				c-1.1,0.4-1.8,1.2-1.1,2.9c0.1,0.3,0.2,0.5,0.3,0.8c0,0.1,0.1,0.2,0.1,0.3c-0.6-0.2-1.2-0.1-1.8,0.1c-1,0.3-2,1-2.6,1.5
				c-0.5,0.5-0.9,1-1.1,1.5c-0.3,0.5-0.5,1.2-0.6,1.8c-0.2,1,0,1.1,0.5,1.8C4.8,45.9,4.9,46,4.9,46c0.3,0.3,0.6,0.7,0.9,1
				s0.6,0.7,1,1c0.1,0.4,0.3,0.8,0.4,1.2c-0.3,0.5-0.2,0.8-0.1,1c0,0.2-0.1,0.5-0.1,0.7c0,0.3-0.1,0.5-0.1,0.8
				c-0.1,1.1-0.1,2-0.1,2.8c0,0.6,0.1,1.2,0.2,1.8c-0.5-0.2-1-0.2-1.5-0.1c-0.6,0.1-1.1,0.5-1.4,1.1c0,0.2-0.1,0.4-0.2,0.7
				c-0.1,0.2-0.1,0.5-0.2,0.8C3.3,59.1,3.1,59.6,3,60c-0.1,0.5,0,1,0.3,1.5c0.2,0.5,0.6,1,1,1.4c1.1,1.2,2.7,2.2,3.4,2.4l0.6,0.1
				L8,65c-0.1-0.3-0.2-0.5-0.3-0.8c0-0.1-0.1-0.2-0.1-0.2c0.3-0.2,0.5-0.6,0.6-0.9c0.1-0.6,0-1.3-0.1-1.9l-0.2-0.7L7.5,61
				c-0.1,0.1-0.2,0.2-0.3,0.3c-0.1,0.1-0.1,0.2-0.2,0.3c-0.1-0.8-0.2-1.7-0.8-2.3c0-0.1,0.2-0.1,0.4,0.1c0.4,0.2,0.8,0.5,1.2,0.9
				c0.4,0.4,0.7,0.8,1.1,1.2c0.4,0.8,0.9,1.5,1.4,2.2c0.5,0.7,1.2,1.4,1.9,2.1c1.8,1.6,3.5,2.8,5.5,3.7c1.9,0.9,4.1,1.5,6.7,2.2
				c0.4,0.4,0.7,0.7,1.1,1c0.4,0.4,0.8,0.7,1.2,1.1c0.6,0.5,1.1,0.8,1.6,1.1c0.4,0.2,0.9,0.3,1.3,0.4c0.9,1.1,1.7,2,2.6,2.8
				c1,0.9,2.1,1.6,3.6,2.3c3.1,1.4,5.7,2.3,8,2.3c2.4,0.1,4.5-0.6,6.7-2.1c0.4-0.3,0.8-0.6,1.2-0.9c0.9-0.7,1.8-1.4,2.8-1.9
				c0.4-0.2,0.7-0.4,1.1-0.6c0.3-0.2,0.6-0.5,0.9-0.8c0.3-0.4,0.7-0.8,0.9-1.3c0.2-0.4,0.4-0.8,0.5-1.2c0.5,0.2,1.1,0.5,1.5,0.8
				s0.8,0.7,1.1,1.2c0.3,0.4,0.7,0.8,1,1.1c0.1,0.1,0.2,0.2,0.4,0.3c0.5,0.3,1.1,0.3,1.7,0.2c0.5-0.1,1-0.4,1.3-0.7
				c0.1-0.1,0.2-0.3,0.3-0.4c0.5-1.2,0.7-2.9,0.7-4.7C66,69.4,65.7,67.3,65.2,65.8z"/>
			<path id="Path-Copy-4_1_" class="st11" d="M63.6,19c-0.2,1.9-0.8,3.7-1.7,5.3c-0.9,1.4-2.1,2.6-3.7,3.4c-1.1,0.5-2.4,0.8-3.7,1
				c-1.4,0.1-2.8,0.1-4.1-0.1c-0.1,0.2-0.1,0.4-0.2,0.6c-0.1,0.2-0.2,0.5-0.2,0.7c-0.3,0.8-0.9,1.5-1.7,2.1c-0.8,0.6-1.8,0.9-2.8,1
				c-0.9,0-1.6-0.2-2.2-0.5c-0.6-0.3-1.1-0.8-1.7-1.3l-0.7-0.6c-0.2-0.1-0.3-0.3-0.5-0.4c0,0.1,0,0.2-0.1,0.3
				c0.3,0.5,0.4,0.9,0.6,1.4l0,0c0.1,0.3,0.2,0.6,0.4,0.9c0.2,0.5,0.4,0.9,0.5,1.3c0.1,0.4,0.2,0.8,0.2,1.3v1.3c0,0.4,0,0.8,0,1.2
				c0.2,0.3,0.3,0.6,0.4,0.8c0.1,0.3,0.1,0.5,0,1c-0.1,1-0.4,1.5-1,1.8c-0.5,0.3-1.3,0.3-2.1,0.3c-0.1,0-0.4,0-0.6,0
				c-0.9,0-2.2,0-2.6,0c-0.5,0-1-0.1-1.4-0.2c-0.3-0.1-0.5-0.2-0.7-0.3c-0.3,0.2-0.6,0.4-0.8,0.6c-0.8,0.6-1.5,1.2-1.8,1.4
				c-0.1,0.2-0.2,0.3-0.3,0.5c-0.3,0.5-0.6,0.9-1.3,1.3c-1.5,0.7-2.6,0.7-3.6,0.1c-1-0.5-1.7-1.5-2.6-2.7c-0.4-0.6-1-1.5-1.3-2.4
				c-0.3-1-0.3-2,0.8-2.5c0.1,0,0.1,0,0.2-0.1s0.2-0.1,0.3-0.2c-0.4,0-0.8,0-1.2,0c-0.8,0-1.6-0.1-2.4-0.2c0,0.1,0,0.2,0,0.2
				c0.1,0.5,0.1,0.8,0.1,1.2c-0.1,0.3-0.2,0.6-0.5,1.1c0,0-0.1,0.1-0.2,0.2c-0.3,0.4-0.5,0.6-0.9,1.4c0,0.4,0.1,0.7,0,1
				c0,0.3-0.1,0.7-0.2,1.2c-0.3,1.2-1.6,1.4-3,1.3c-1.3-0.1-2.7-0.4-3.5-0.6c-0.2,0-0.3-0.1-0.5-0.1c-0.7-0.2-1.4-0.3-2-0.6
				c-1.2-0.5-2-1.3-1.3-2.9c0.1-0.2,0.2-0.5,0.3-0.8c0-0.1,0.1-0.2,0.1-0.3c-0.6,0.1-1.3,0-2-0.2c-1.1-0.4-2.2-1.2-2.9-1.8
				c-0.5-0.5-1-1-1.3-1.6S1.7,34.6,1.5,34c-0.2-1-0.1-1.1,0.6-1.7c0.1-0.1,0.2-0.2,0.2-0.2c0.3-0.3,0.6-0.6,0.9-0.9s0.7-0.6,1-0.9
				c0.2-0.4,0.3-0.8,0.5-1.1C4.8,29,4.9,28.7,5,28.5c0-0.3,0-0.5-0.1-0.8c0-0.3-0.1-0.5-0.1-0.8c-0.1-1-0.1-1.9-0.1-2.8
				c0-0.6,0.1-1.2,0.2-1.7c-0.5,0.1-1.1,0.1-1.5,0c-0.6-0.2-1.1-0.6-1.4-1.2c-0.1-0.2-0.2-0.5-0.3-0.7c-0.1-0.2-0.2-0.5-0.2-0.8
				c-0.4-0.4-0.7-0.8-0.8-1.3s0-1,0.3-1.5c0.2-0.5,0.6-0.9,1-1.3c1.1-1.1,2.7-1.9,3.4-2L6,13.5L5.8,14c-0.1,0.2-0.2,0.5-0.3,0.8
				c0,0.1-0.1,0.2-0.1,0.2c0.3,0.2,0.5,0.6,0.6,1c0.1,0.6,0.1,1.3-0.1,1.8l-0.2,0.6L5.3,18c-0.1-0.1-0.2-0.2-0.3-0.4
				c-0.1-0.1-0.1-0.2-0.2-0.3c0,0.9-0.1,1.7-0.8,2.3c0,0.1,0,0.1,0,0.1s0.1,0,0.4-0.1c0.4-0.2,0.8-0.4,1.2-0.7
				c0.4-0.3,0.7-0.7,1.1-1c0.4-0.7,0.9-1.4,1.4-2c0.5-0.7,1.2-1.3,1.9-1.9c1.7-1.4,3.4-2.4,5.4-3.1c1.9-0.7,4-1.1,6.6-1.5
				c0.3-0.3,0.7-0.6,1-0.9c0.4-0.3,0.7-0.6,1.1-1c0.6-0.4,1-0.7,1.5-0.9c0.4-0.2,0.8-0.2,1.3-0.2c0.8-1,1.5-1.8,2.4-2.5
				c0.9-0.8,1.9-1.4,3.3-1.9c2.8-1.1,5.3-1.7,7.5-1.5c2.3,0.1,4.4,1,6.7,2.7c0.4,0.3,0.9,0.7,1.3,1c1,0.8,1.9,1.5,3,2.2
				c0.4,0.2,0.8,0.4,1.1,0.7c0.3,0.2,0.7,0.5,1,0.9c0.4,0.4,0.8,0.9,1.1,1.4c0.3,0.4,0.5,0.8,0.7,1.3c0.5-0.2,1-0.4,1.4-0.7
				c0.3-0.3,0.6-0.7,0.9-1c0.3-0.3,0.5-0.7,0.8-1c0.1-0.1,0.2-0.2,0.3-0.2c0.5-0.2,1.1-0.2,1.6,0c0.5,0.2,1,0.5,1.4,0.8
				c0.2,0.1,0.3,0.3,0.4,0.4c0.7,1.2,1.2,2.9,1.5,4.7C63.7,15.5,63.8,17.5,63.6,19z"/>
			
				<linearGradient id="Combined-Shape_13_" gradientUnits="userSpaceOnUse" x1="140.1435" y1="-173.9147" x2="139.9965" y2="-174.6265" gradientTransform="matrix(58.1899 -14.9604 21.1794 41.1035 -4439.5596 9289.0889)">
				<stop  offset="0" style="stop-color:#D7A47F"/>
				<stop  offset="1" style="stop-color:#D68256"/>
			</linearGradient>
			<path id="Combined-Shape_3_" class="st12" d="M29.5,45c0.1,0,0.2-0.1,0.3-0.1c0.8-0.4,1-0.8,1.3-1.3c0.1-0.2,0.2-0.3,0.3-0.5
				c0.3-0.2,1.1-0.8,1.8-1.4c0.3-0.2,0.5-0.4,0.8-0.6c0.2,0.1,0.4,0.2,0.7,0.3c0.4,0.1,0.8,0.1,1.4,0.2c0.4,0,1.7,0,2.6,0
				c0.3,0,0.5,0,0.6,0c0.9,0,1.6,0,2.1-0.3c0.6-0.3,0.9-0.8,1-1.8c0-0.4,0-0.7,0-1c-0.1-0.3-0.2-0.5-0.4-0.8c0-0.4,0-0.8,0-1.2v-1.3
				c0-0.5-0.1-0.9-0.2-1.3c-0.1-0.4-0.3-0.8-0.5-1.3c-0.1-0.3-0.3-0.6-0.4-0.9l0,0c-0.2-0.5-0.4-0.9-0.6-1.4c0-0.1,0-0.2,0.1-0.3
				c0.2,0.1,0.3,0.3,0.5,0.4l0.7,0.6c0.6,0.5,1.1,0.9,1.7,1.3c0.6,0.3,1.3,0.5,2.2,0.5s1.9-0.4,2.8-1c0.8-0.5,1.4-1.3,1.7-2.1
				c0.1-0.2,0.2-0.5,0.2-0.7c0.1-0.2,0.1-0.4,0.2-0.6c1.3,0.2,2.7,0.3,4.1,0.1c1.3-0.1,2.6-0.4,3.7-1c1.6-0.8,2.8-2,3.7-3.4
				c1-1.5,1.5-3.4,1.7-5.3c0.2-1.5,0.1-3.6-0.3-5.5c-0.3-1.8-0.8-3.5-1.5-4.7c-0.1-0.1-0.2-0.3-0.4-0.4c-0.3-0.3-0.9-0.6-1.4-0.8
				c-0.6-0.2-1.2-0.2-1.6,0c-0.1,0.1-0.2,0.1-0.3,0.2c-0.3,0.3-0.6,0.6-0.8,1c-0.3,0.4-0.6,0.8-0.9,1c-0.4,0.3-0.9,0.5-1.4,0.7
				c-0.2-0.5-0.4-0.9-0.7-1.3c-0.3-0.5-0.7-0.9-1.1-1.4c-0.3-0.4-0.7-0.6-1-0.9c-0.4-0.2-0.7-0.5-1.1-0.7c-1.1-0.6-2.1-1.4-3-2.2
				c-0.2-0.2-0.4-0.3-0.6-0.5c-0.3-0.1-0.4-0.2-0.6-0.3c-1.1-1.1-3.2-1.8-6.3-2.1c2.2,2.8,2.2,3.9,0,3.3c-2.2-0.6-5.1,0.8-8.8,4.2
				c-2.5,0.8-4,1.5-4.6,2.1c-0.8,0.8,1.7,11.7,0,13.3c-1.7,1.7-2.9,2.5-5.4,1.3c-1.7-0.8-1.7-2.8,0-5.8c-0.6,1.4-1.4,2.4-2.5,2.9
				c-1.7,0.8-1.3,0-2.5,1.3c-1.3,1.3-5,2.9-7.5,2.9C6.8,26.4,6,21,6,25.1c0,2.8,0.6,4.9,1.7,6.3c0,2.4-0.6,3.8-1.7,4.2
				c-1.1,0.4-2.5,0-4.3-1.1c0,0.1,0.1,0.2,0.1,0.4L4,37.6c0.6,0.5,1.4,1,2.3,1.3c0.6,0.2,1.2,0.3,1.7,0.3l1.3-1.9l0-2.1
				c3.6,0,4.7,0.4,3.3,1.3c-1.4,0.8-1,3.6-2.1,4.6c-0.3,0.3-1,0.3-2.1,0L8,42.6c0.3,0.3,0.7,0.6,1.2,0.8c0.6,0.3,1.4,0.4,2,0.6
				c0.1,0,0.3,0.1,0.5,0.1c0.8,0.2,2.2,0.6,3.5,0.6c1.4,0.1,2.7-0.2,3-1.3c0-0.1,0-0.2,0.1-0.3c0-4.6,0.4-6.8,1.1-6.4
				c1.1,0.6,3.8,0.3,7.9-0.8v-4.2c1.4,4.7,2.1,7.4,2.1,7.9s-1.4,1.7-4.2,3.3L29.5,45z"/>
			
				<linearGradient id="Shape_3_" gradientUnits="userSpaceOnUse" x1="140.5263" y1="-175.096" x2="140.5744" y2="-174.0499" gradientTransform="matrix(59.2701 -15.4154 21.5726 42.3532 -4523.5576 9582.6396)">
				<stop  offset="0" style="stop-color:#181743"/>
				<stop  offset="1" style="stop-color:#D8744A"/>
			</linearGradient>
			<path id="Shape" class="st13" d="M60.1,8.8c-0.4,1.6-1.3,2.9-3.1,3.5c-0.9,0.3-1.4,0-2.3-0.2c0.9,0.1,1.4,0.2,2.2-0.2
				C58.3,11.2,59.4,10.1,60.1,8.8L60.1,8.8z M63.6,19c-0.2,1.9-0.8,3.7-1.7,5.3c-0.9,1.4-2.1,2.6-3.7,3.4c-1.1,0.5-2.4,0.8-3.7,1
				c-1.4,0.1-2.8,0.1-4.1-0.1c-0.1,0.2-0.1,0.4-0.2,0.6c-0.1,0.2-0.2,0.5-0.2,0.7c-0.3,0.8-0.9,1.5-1.7,2.1c-0.8,0.6-1.8,0.9-2.8,1
				c-0.9,0-1.6-0.2-2.2-0.5c-0.6-0.3-1.1-0.8-1.7-1.3l-0.7-0.6c-0.2-0.1-0.3-0.3-0.5-0.4c0,0.1,0,0.2-0.1,0.3
				c0.3,0.5,0.4,0.9,0.6,1.4l0,0c0.1,0.3,0.2,0.6,0.4,0.9c0.2,0.5,0.4,0.9,0.5,1.3c0.1,0.4,0.2,0.8,0.2,1.3v1.3c0,0.4,0,0.8,0,1.2
				c0.2,0.3,0.3,0.6,0.4,0.8c0.1,0.3,0.1,0.5,0,1c-0.1,1-0.4,1.5-1,1.8c-0.5,0.3-1.3,0.3-2.1,0.3c-0.1,0-0.4,0-0.6,0
				c-0.9,0-2.2,0-2.6,0c-0.5,0-1-0.1-1.4-0.2c-0.3-0.1-0.5-0.2-0.7-0.3c-0.3,0.2-0.6,0.4-0.8,0.6c-0.8,0.6-1.5,1.2-1.8,1.4
				c-0.1,0.2-0.2,0.3-0.3,0.5c-0.3,0.5-0.6,0.9-1.3,1.3c-1.5,0.7-2.6,0.7-3.6,0.1c-1-0.5-1.7-1.5-2.6-2.7c-0.4-0.6-1-1.5-1.3-2.4
				c-0.3-1-0.3-2,0.8-2.5c0.1,0,0.1,0,0.2-0.1s0.2-0.1,0.3-0.2c-0.4,0-0.8,0-1.2,0c-0.8,0-1.6-0.1-2.4-0.2c0,0.1,0,0.2,0,0.2
				c0.1,0.5,0.1,0.8,0.1,1.2c-0.1,0.3-0.2,0.6-0.5,1.1c0,0-0.1,0.1-0.2,0.2c-0.3,0.4-0.5,0.6-0.9,1.4c0,0.4,0.1,0.7,0,1
				c0,0.3-0.1,0.7-0.2,1.2c-0.3,1.2-1.6,1.4-3,1.3c-1.3-0.1-2.7-0.4-3.5-0.6c-0.2,0-0.3-0.1-0.5-0.1c-0.7-0.2-1.4-0.3-2-0.6
				c-1.2-0.5-2-1.3-1.3-2.9c0.1-0.2,0.2-0.5,0.3-0.8c0-0.1,0.1-0.2,0.1-0.3c-0.6,0.1-1.3,0-2-0.2c-1.1-0.4-2.2-1.2-2.9-1.8
				c-0.5-0.5-1-1-1.3-1.6S1.7,34.6,1.5,34c-0.2-1-0.1-1.1,0.6-1.7c0.1-0.1,0.2-0.2,0.2-0.2c0.3-0.3,0.6-0.6,0.9-0.9s0.7-0.6,1-0.9
				c0.2-0.4,0.3-0.8,0.5-1.1C4.8,29,4.9,28.7,5,28.5c0-0.3,0-0.5-0.1-0.8c0-0.3-0.1-0.5-0.1-0.8c-0.1-1-0.1-1.9-0.1-2.8
				c0-0.6,0.1-1.2,0.2-1.7c-0.5,0.1-1.1,0.1-1.5,0c-0.6-0.2-1.1-0.6-1.4-1.2c-0.1-0.2-0.2-0.5-0.3-0.7c-0.1-0.2-0.2-0.5-0.2-0.8
				c-0.4-0.4-0.7-0.8-0.8-1.3s0-1,0.3-1.5c0.2-0.5,0.6-0.9,1-1.3c1.1-1.1,2.7-1.9,3.4-2L6,13.5L5.8,14c-0.1,0.2-0.2,0.5-0.3,0.8
				c0,0.1-0.1,0.2-0.1,0.2c0.3,0.2,0.5,0.6,0.6,1c0.1,0.6,0.1,1.3-0.1,1.8l-0.2,0.6L5.3,18c-0.1-0.1-0.2-0.2-0.3-0.4
				c-0.1-0.1-0.1-0.2-0.2-0.3c0,0.9-0.1,1.7-0.8,2.3c0,0.1,0,0.1,0,0.1s0.1,0,0.4-0.1c0.4-0.2,0.8-0.4,1.2-0.7
				c0.4-0.3,0.7-0.7,1.1-1c0.4-0.7,0.9-1.4,1.4-2c0.5-0.7,1.2-1.3,1.9-1.9c1.7-1.4,3.4-2.4,5.4-3.1c1.9-0.7,4-1.1,6.6-1.5
				c0.3-0.3,0.7-0.6,1-0.9c0.4-0.3,0.7-0.6,1.1-1c0.6-0.4,1-0.7,1.5-0.9c0.4-0.2,0.8-0.2,1.3-0.2c0.8-1,1.5-1.8,2.4-2.5
				c0.9-0.8,1.9-1.4,3.3-1.9c2.8-1.1,5.3-1.7,7.5-1.5c2.3,0.1,4.4,1,6.7,2.7c0.4,0.3,0.9,0.7,1.3,1c1,0.8,1.9,1.5,3,2.2
				c0.4,0.2,0.8,0.4,1.1,0.7c0.3,0.2,0.7,0.5,1,0.9c0.4,0.4,0.8,0.9,1.1,1.4c0.3,0.4,0.5,0.8,0.7,1.3c0.5-0.2,1-0.4,1.4-0.7
				c0.3-0.3,0.6-0.7,0.9-1c0.3-0.3,0.5-0.7,0.8-1c0.1-0.1,0.2-0.2,0.3-0.2c0.5-0.2,1.1-0.2,1.6,0c0.5,0.2,1,0.5,1.4,0.8
				c0.2,0.1,0.3,0.3,0.4,0.4c0.7,1.2,1.2,2.9,1.5,4.7C63.7,15.5,63.8,17.5,63.6,19z M53.8,10.9c-0.1,0-0.2,0-0.3,0
				c0.1,0.1,0.3,0.3,0.3,0.5l0.1-0.1C54,11.2,53.9,11.1,53.8,10.9L53.8,10.9z M4.6,16.4c0.3,0,0.4,0.1,0.6,0.3
				c0-0.4-0.1-0.8-0.5-0.9c0,0.1,0,0.1-0.1,0.2C4.6,16.1,4.6,16.3,4.6,16.4z M5.6,21.2c0-0.1,0-0.2,0.1-0.2c0.2-0.5,0.3-0.9,0.5-1.4
				c-0.4,0.3-0.8,0.6-1.4,0.8c-1.4,0.5-1.3,0.1-1.9-1C4.2,18.5,3.6,17.3,4,16c0.1-0.3,0.2-0.6,0.4-1c-1.3,0.7-3.7,2.8-2.1,4.3
				c0.2,0.6,0.3,1,0.6,1.5C3.3,21.9,4.6,21.6,5.6,21.2L5.6,21.2z M9.2,36.7c-1.4-2-2.7-4.3-3.4-6.7c-0.1,0.3-0.3,0.7-0.4,1
				c-0.6,0.6-1.3,1.2-1.9,1.8C3,33.3,2.9,33.3,3,33.9c0.1,0.8,0.7,1.7,1.5,2.5c0.7,0.7,3.3,2.5,4.3,1.3C9.1,37.4,9.2,37.1,9.2,36.7
				L9.2,36.7L9.2,36.7z M40.2,33c-0.2-0.5-0.3-0.9-0.5-1.4c-0.3,1.1-0.8,2.1-1.2,3.3c-0.4,1.1-2.4,4.4-3.6,5.2
				c0.2,0.2,0.6,0.2,1.4,0.3c0.5,0,2.6,0.1,3.1,0.1c1.2,0,1.6-0.1,1.7-1.3c0.1-0.6,0-0.7-0.3-1.2l-0.1-2.8
				C40.8,34.3,40.6,33.8,40.2,33z M60.9,9.7c-0.3-0.6-1.3-1.5-2-0.9s-1.2,1.5-2,2c-1,0.7-2.8,0.5-2.5,2.1c0.2,1.1,0.3,2.4,0,3.5
				c-0.3,1-0.5,2.5-1.1,3.2c0.2-0.6,0.5-2.1,0.5-3.1c0-0.6,0-1.2-0.1-1.9c-0.1,0-0.3,0-0.4,0c-0.5,0-1.2,0.6-1.4,1
				c-0.6,1.1-0.6,2.1-1.3,3.1c0.5-1.1,0.2-2.2,0.7-3.4c0.2-0.4,0.6-0.8,1.1-1c-0.3,0-0.5,0.1-0.9,0.2c-1.7,0.4-1.6,1.6-2.7,2.8
				c1-1.7,0.5-2.9,2.7-3.3c0.7-0.2,1.3-0.2,1.7,0.1l0,0c0.1,0,0.2,0,0.4,0c-0.1-0.3-0.1-0.6-0.2-0.9c-1-0.1-1.9-0.1-3,0
				c0.2-0.1,0.4-0.2,0.7-0.2c0.3-0.1,0.6-0.2,1-0.2c0-0.1,0-0.1,0.1-0.2c0-0.3-0.2-0.6-0.6-0.6c-0.3,0-0.6,0.2-0.7,0.5
				c0,0.1,0,0.3,0.1,0.4v-0.1l0,0c-0.1-0.2-0.2-0.5-0.2-0.8c0-0.2,0.1-0.4,0.2-0.6h-0.1c-0.2,0.1-0.8,0.1-1,0
				c0.5-0.1,1.2-0.3,1.6-0.5l0,0c0.3-0.2,0.6-0.2,1-0.2c0.2,0,0.3,0.1,0.5,0.1c0.2,0.1,0.4,0.1,0.7,0.2c-0.4-0.8-0.9-1.6-1.5-2.3
				c-0.5-0.7-1-0.9-1.8-1.4C50.3,7.1,50.2,7,50,6.9c-0.6-0.1-1.3-0.2-1.8-0.1c0.5-0.2,0.8-0.2,1.2-0.3c-1.1-0.8-2.1-1.6-3.3-2.5
				c-4.3-3.3-7.8-3-13.3-0.8c-2.2,0.9-3,1.8-4.4,3.4l0,0c1.4,0,2.8-0.1,4.2-0.2c-1.5,0.3-2.9,0.6-4.4,0.8c-1.6,0.2-2.1,0.2-3.3,1.3
				c-2.2,2-4.1,4.3-6.2,6.3c-1.2,1.2-1.8,2.4-2.5,3.7c-0.7,1.3-0.6,1.9,0.3,3c1,1.2,1.5,1.7,1.9,2.8c1.1-1.5,2.3-2.7,3.7-4.2
				c-1.1,1.6-2.1,3.1-3,4.8c-0.6,1-0.8,1.5-0.8,2.7c1.1,1.1,1.7,1.7,2.7,2c1.1,0.3,2,0.2,3-0.2c2.4-1.1,4.6-2.6,7.3-2.8
				c1.4-2.2,1-5,0.5-7.6c-0.4-2.1-0.3-4,0.2-6.1c0.1,2.1,0.3,4,0.8,6c0.6,2.9,0.8,5.5-0.6,8.5c-2.9,0.1-5.3,1.6-7.9,2.8
				c-1.2,0.5-2.2,0.6-3.5,0.3c-1.3-0.3-2.3-1.2-3.7-2.6c0.1-1,0.3-1.7,0.7-2.4c-0.5-1.3-1.1-2-2.2-3.3c-1.3-1.6-1.3-2.3-0.3-4.1
				c0.7-1.3,1.4-2.5,2.5-3.7c1.1-1.2,2.1-2.3,3.1-3.3c-4.2,0.6-6.9,1.5-9.8,3.9c-2.1,1.7-3.5,3.9-4.4,6.4c-0.6,1.6-0.8,3.1-0.5,5.7
				c0.4,3.3,2.3,7,4.3,9.7c-0.3,1.7-0.6,3-1.1,4.2c-0.6,1.4,1.7,1.8,2.8,2.1c0.9,0.2,4.4,1.1,4.7,0c0.2-0.7,0.2-1.1,0.2-1.9
				c0.6-1.1,0.8-1.3,1.2-1.9c0.5-0.7,0.5-1,0.5-1.8c0-1.1,0-3,0-3.7c0.2,0.6,0.3,1.5,0.5,2.3c2.5,0.4,4.9,0.4,7.3-0.1
				c0-0.2,0.1-0.3,0.2-0.5c0.2-0.5,0.5-1.1,0.7-1.6c0,0.5-0.1,1-0.1,1.6c0,0.5,0,1,0,1.5c0,0.3,0.1,0.6,0.1,0.9
				c-0.2-0.3-0.5-0.5-0.6-0.8c-1.1,0.7-1.7,1-2.8,1.6c-1.1,0.6,0.2,2.5,0.6,3.2c1,1.5,2.3,3.3,4.2,2.4c0.6-0.3,1-1,1.4-1.5
				c0.6-0.3,3.5-2.6,4-2.9c0.7-0.4,3.1-4,3.4-4.9c0.7-2,1.5-3.5,1.7-5.6c-1.5-0.6-2.3-1.2-3.4-2.4c1.5,1.1,2.9,1.6,4.5,2.1
				c0.6,0.5,1.2,1,1.9,1.5c0.9,0.8,1.8,1.5,3.1,1.5c1.4,0,3.1-1,3.5-2.3c0.2-0.5,0.3-1,0.5-1.5c-0.3-0.1-0.6-0.1-0.8-0.2
				c-0.3,0.7-0.3,0.9-0.4,1.4c-0.2,0.8-1.5,1.4-2.8,1.1c-0.5-0.1-0.7-0.2-0.9-0.3c0.1,0.3,0.4,0.6,0.9,0.7s0.9,0.1,1.7,0
				c-0.9,0.5-1.2,0.5-1.9,0.3c-1.8-0.4-1.1-2.3-0.8-3.5c0.2-0.8,0.2-1.6,0-2.3c0.7,0.4,1.2,0.7,2,1c3.6,1.1,7.8,2.2,11.4,0.4
				c2.8-1.4,4.3-4.6,4.7-7.6C62.6,16.4,62.1,12.3,60.9,9.7L60.9,9.7z M42.8,25.5c-0.1,0.4-0.2,0.9-0.2,1.3c0.2-0.5,0.4-1,0.6-1.4
				c0.2-0.5,0.4-0.5,0.8-0.8c0.3-0.2,1-0.4,1.3-0.6c-0.4,0.1-1,0.2-1.3,0.2C43.1,24.4,42.9,24.6,42.8,25.5L42.8,25.5z M26.6,9.8
				c-1.1,1-2.2,4.5-2.5,5.8c0.5-1.1,1.9-4.3,2.9-5.2c0.3-0.2,0.5-0.4,0.7-0.5c-0.7,1.1-0.7,1.4-0.4,3c0.2-1.6,0.8-2.2,1.8-3.3
				c1.1-0.2,2-0.5,3.1-0.9C31,8.8,29.8,8.9,28.5,9C27.4,9.2,27.3,9.1,26.6,9.8L26.6,9.8z M44.9,13.6c-0.2-0.5-0.7-0.8-1.1-0.9
				c0.4-0.2,0.9-0.4,1.2-0.7c-1,0.4-2.1,0.3-3,0.8c-0.7,0.5-1.8,1.9-2.5,2.5c0.5-0.2,1.1-0.5,1.6-0.9c0,0.3,0.1,0.5,0.2,0.8
				c0.1,0.3,0.3,0.5,0.6,0.6c-0.1-0.1-0.1-0.1-0.2-0.2c-0.2-0.4,0-0.9,0.4-1c0.4-0.2,0.9,0,1.1,0.4v0.1c-0.4,0.3-0.8,0.6-1.1,1
				c-0.3,0.3-0.5,0.7-0.7,1.1c1.4-1.6,3.5-2.8,5.5-3.3c-0.5,0-1.2,0.1-1.9,0.3C45,14,45,13.8,44.9,13.6L44.9,13.6z M37.8,12.2
				c0.3-1.3,0.9-2.6,3.2-3.6C38,9.3,37.5,10.4,37.8,12.2L37.8,12.2z"/>
		</g>
	</g>
	
		<radialGradient id="Oval-4_1_" cx="46.5257" cy="16.6052" r="0.5477" gradientTransform="matrix(24.3385 0 0 24.3385 -874.4662 -354.2445)" gradientUnits="userSpaceOnUse">
		<stop  offset="0" style="stop-color:#463258"/>
		<stop  offset="0.7244" style="stop-color:#4DEAD7"/>
		<stop  offset="1" style="stop-color:#4DEAD7;stop-opacity:0"/>
	</radialGradient>
	<circle id="Oval-4" class="st14" cx="257.9" cy="49.9" r="12.2"/>
	<g id="背景星球" transform="translate(67.000000, 17.000000)" class="st15">
		<circle id="Oval-14" class="st16" cx="321.5" cy="171.5" r="1.5"/>
		<circle id="Oval-14-Copy-15" class="st16" cx="251.5" cy="251.5" r="1.5"/>
		<circle id="Oval-14-Copy-45" class="st16" cx="31.5" cy="238.5" r="1.5"/>
		<circle id="Oval-14-Copy-47" class="st16" cx="651.5" cy="48.5" r="1.5"/>
		<circle id="Oval-14-Copy-16" class="st16" cx="121.5" cy="211.5" r="1.5"/>
		<circle id="Oval-14-Copy-14" class="st16" cx="431.5" cy="201.5" r="1.5"/>
		<circle id="Oval-14-Copy" class="st16" cx="411" cy="221" r="1"/>
		<circle id="Oval-14-Copy-10" class="st16" cx="461" cy="271" r="1"/>
		<circle id="Oval-14-Copy-11" class="st16" cx="461" cy="141" r="1"/>
		<circle id="Oval-14-Copy-12" class="st16" cx="561" cy="81" r="1"/>
		<circle id="Oval-14-Copy-13" class="st16" cx="611" cy="101" r="1"/>
		<circle id="Oval-14-Copy-2" class="st16" cx="390.5" cy="190.5" r="1"/>
		
			<ellipse id="Oval-14-Copy-22" transform="matrix(-0.866 0.5 -0.5 -0.866 121.0054 369.585)" class="st16" cx="11" cy="201" rx="1" ry="1"/>
		
			<ellipse id="Oval-14-Copy-21" transform="matrix(-0.866 0.5 -0.5 -0.866 403.5884 453.8858)" class="st16" cx="141" cy="281" rx="1" ry="1"/>
		
			<ellipse id="Oval-14-Copy-20" transform="matrix(-0.866 0.5 -0.5 -0.866 338.6022 211.2944)" class="st16" cx="141" cy="151" rx="1" ry="1"/>
		
			<ellipse id="Oval-14-Copy-19" transform="matrix(-0.866 0.5 -0.5 -0.866 536.5438 278.2694)" class="st16" cx="231" cy="211" rx="1" ry="1"/>
		
			<ellipse id="Oval-14-Copy-18" transform="matrix(-0.866 0.5 -0.5 -0.866 639.846 290.5964)" class="st16" cx="281" cy="231" rx="1" ry="1"/>
		
			<ellipse id="Oval-14-Copy-34" transform="matrix(-0.866 0.5 -0.5 -0.866 544.8665 -63.9603)" class="st16" cx="281" cy="41" rx="1" ry="1"/>
		
			<ellipse id="Oval-14-Copy-35" transform="matrix(-0.866 0.5 -0.5 -0.866 419.2391 -10.3069)" class="st16" cx="211" cy="51" rx="1" ry="1"/>
		
			<ellipse id="Oval-14-Copy-36" transform="matrix(-0.866 0.5 -0.5 -0.866 727.8111 -52.9679)" class="st16" cx="371" cy="71" rx="1" ry="1"/>
		
			<ellipse id="Oval-14-Copy-37" transform="matrix(-0.866 0.5 -0.5 -0.866 772.8015 114.9801)" class="st16" cx="371" cy="161" rx="1" ry="1"/>
		
			<ellipse id="Oval-14-Copy-17" transform="matrix(-0.866 0.5 -0.5 -0.866 273.114 567.8378)" class="st16" cx="60.5" cy="320.5" rx="1" ry="1"/>
		
			<ellipse id="Oval-14-Copy-38" transform="matrix(-0.866 0.5 -0.5 -0.866 236.7866 357.5691)" class="st16" cx="70.5" cy="210.5" rx="1" ry="1"/>
		
			<ellipse id="Oval-14-Copy-39" transform="matrix(-0.866 0.5 -0.5 -0.866 144.4768 162.2973)" class="st16" cx="50.5" cy="100.5" rx="1" ry="1"/>
		
			<ellipse id="Oval-14-Copy-40" transform="matrix(-0.866 0.5 -0.5 -0.866 384.7388 237.9352)" class="st16" cx="160.5" cy="170.5" rx="1" ry="1"/>
		<circle id="Oval-14-Copy-3" class="st16" cx="420.5" cy="170.5" r="1"/>
		<circle id="Oval-14-Copy-4" class="st16" cx="430.5" cy="120.5" r="1"/>
		<circle id="Oval-14-Copy-5" class="st16" cx="490.5" cy="120.5" r="1"/>
		<circle id="Oval-14-Copy-6" class="st16" cx="560.5" cy="120.5" r="1"/>
		<circle id="Oval-14-Copy-23" class="st16" cx="250.5" cy="50.5" r="1"/>
		<circle id="Oval-14-Copy-24" class="st16" cx="230.5" cy="30.5" r="1"/>
		<circle id="Oval-14-Copy-25" class="st16" cx="290.5" cy="60.5" r="1"/>
		<circle id="Oval-14-Copy-42" class="st16" cx="120.5" cy="300.5" r="1"/>
		<circle id="Oval-14-Copy-43" class="st16" cx="170.5" cy="340.5" r="1"/>
		<circle id="Oval-14-Copy-44" class="st16" cx="10.5" cy="240.5" r="1"/>
		<circle id="Oval-14-Copy-31" class="st16" cx="60.5" cy="30.5" r="1"/>
		<circle id="Oval-14-Copy-41" class="st16" cx="220.5" cy="80.5" r="1"/>
		<circle id="Oval-14-Copy-32" class="st16" cx="0.5" cy="70.5" r="1"/>
		<circle id="Oval-14-Copy-33" class="st16" cx="30.5" cy="210.5" r="1"/>
		<circle id="Oval-14-Copy-26" class="st16" cx="260.5" cy="230.5" r="1"/>
		<circle id="Oval-14-Copy-27" class="st16" cx="330.5" cy="60.5" r="1"/>
		<circle id="Oval-14-Copy-28" class="st16" cx="370.5" cy="30.5" r="1"/>
		<circle id="Oval-14-Copy-29" class="st16" cx="360.5" cy="120.5" r="1"/>
		<circle id="Oval-14-Copy-7" class="st16" cx="560.5" cy="120.5" r="1"/>
		<circle id="Oval-14-Copy-8" class="st16" cx="620.5" cy="140.5" r="1"/>
		<circle id="Oval-14-Copy-9" class="st16" cx="620.5" cy="0.5" r="1"/>
	</g>
	<g id="背景星球-copy" transform="translate(647.000000, 7.000000)" class="st15">
		<circle id="Oval-14_1_" class="st16" cx="321.5" cy="171.5" r="1.5"/>
		<circle id="Oval-14-Copy-15_1_" class="st16" cx="251.5" cy="251.5" r="1.5"/>
		<circle id="Oval-14-Copy-45_1_" class="st16" cx="31.5" cy="238.5" r="1.5"/>
		<circle id="Oval-14-Copy-47_1_" class="st16" cx="651.5" cy="48.5" r="1.5"/>
		<circle id="Oval-14-Copy-16_1_" class="st16" cx="121.5" cy="211.5" r="1.5"/>
		<circle id="Oval-14-Copy-14_1_" class="st16" cx="431.5" cy="201.5" r="1.5"/>
		<circle id="Oval-14-Copy_1_" class="st16" cx="411" cy="221" r="1"/>
		<circle id="Oval-14-Copy-10_1_" class="st16" cx="461" cy="271" r="1"/>
		<circle id="Oval-14-Copy-11_1_" class="st16" cx="461" cy="141" r="1"/>
		<circle id="Oval-14-Copy-12_1_" class="st16" cx="561" cy="81" r="1"/>
		<circle id="Oval-14-Copy-13_1_" class="st16" cx="611" cy="101" r="1"/>
		<circle id="Oval-14-Copy-2_1_" class="st16" cx="390.5" cy="190.5" r="1"/>
		
			<ellipse id="Oval-14-Copy-22_1_" transform="matrix(-0.866 0.5 -0.5 -0.866 121.0054 369.585)" class="st16" cx="11" cy="201" rx="1" ry="1"/>
		
			<ellipse id="Oval-14-Copy-21_1_" transform="matrix(-0.866 0.5 -0.5 -0.866 403.5884 453.8858)" class="st16" cx="141" cy="281" rx="1" ry="1"/>
		
			<ellipse id="Oval-14-Copy-20_1_" transform="matrix(-0.866 0.5 -0.5 -0.866 338.6022 211.2944)" class="st16" cx="141" cy="151" rx="1" ry="1"/>
		
			<ellipse id="Oval-14-Copy-19_1_" transform="matrix(-0.866 0.5 -0.5 -0.866 536.5438 278.2694)" class="st16" cx="231" cy="211" rx="1" ry="1"/>
		
			<ellipse id="Oval-14-Copy-18_1_" transform="matrix(-0.866 0.5 -0.5 -0.866 639.846 290.5964)" class="st16" cx="281" cy="231" rx="1" ry="1"/>
		
			<ellipse id="Oval-14-Copy-34_1_" transform="matrix(-0.866 0.5 -0.5 -0.866 544.8665 -63.9603)" class="st16" cx="281" cy="41" rx="1" ry="1"/>
		
			<ellipse id="Oval-14-Copy-35_1_" transform="matrix(-0.866 0.5 -0.5 -0.866 419.2391 -10.3069)" class="st16" cx="211" cy="51" rx="1" ry="1"/>
		
			<ellipse id="Oval-14-Copy-36_1_" transform="matrix(-0.866 0.5 -0.5 -0.866 727.8111 -52.9679)" class="st16" cx="371" cy="71" rx="1" ry="1"/>
		
			<ellipse id="Oval-14-Copy-37_1_" transform="matrix(-0.866 0.5 -0.5 -0.866 772.8015 114.9801)" class="st16" cx="371" cy="161" rx="1" ry="1"/>
		
			<ellipse id="Oval-14-Copy-17_1_" transform="matrix(-0.866 0.5 -0.5 -0.866 273.114 567.8378)" class="st16" cx="60.5" cy="320.5" rx="1" ry="1"/>
		
			<ellipse id="Oval-14-Copy-38_1_" transform="matrix(-0.866 0.5 -0.5 -0.866 236.7866 357.5691)" class="st16" cx="70.5" cy="210.5" rx="1" ry="1"/>
		
			<ellipse id="Oval-14-Copy-39_1_" transform="matrix(-0.866 0.5 -0.5 -0.866 144.4768 162.2973)" class="st16" cx="50.5" cy="100.5" rx="1" ry="1"/>
		
			<ellipse id="Oval-14-Copy-40_1_" transform="matrix(-0.866 0.5 -0.5 -0.866 384.7388 237.9352)" class="st16" cx="160.5" cy="170.5" rx="1" ry="1"/>
		<circle id="Oval-14-Copy-3_1_" class="st16" cx="420.5" cy="170.5" r="1"/>
		<circle id="Oval-14-Copy-4_1_" class="st16" cx="430.5" cy="120.5" r="1"/>
		<circle id="Oval-14-Copy-5_1_" class="st16" cx="490.5" cy="120.5" r="1"/>
		<circle id="Oval-14-Copy-6_1_" class="st16" cx="560.5" cy="120.5" r="1"/>
		<circle id="Oval-14-Copy-23_1_" class="st16" cx="250.5" cy="50.5" r="1"/>
		<circle id="Oval-14-Copy-24_1_" class="st16" cx="230.5" cy="30.5" r="1"/>
		<circle id="Oval-14-Copy-25_1_" class="st16" cx="290.5" cy="60.5" r="1"/>
		<circle id="Oval-14-Copy-42_1_" class="st16" cx="120.5" cy="300.5" r="1"/>
		<circle id="Oval-14-Copy-43_1_" class="st16" cx="170.5" cy="340.5" r="1"/>
		<circle id="Oval-14-Copy-44_1_" class="st16" cx="10.5" cy="240.5" r="1"/>
		<circle id="Oval-14-Copy-31_1_" class="st16" cx="60.5" cy="30.5" r="1"/>
		<circle id="Oval-14-Copy-41_1_" class="st16" cx="220.5" cy="80.5" r="1"/>
		<circle id="Oval-14-Copy-32_1_" class="st16" cx="0.5" cy="70.5" r="1"/>
		<circle id="Oval-14-Copy-33_1_" class="st16" cx="30.5" cy="210.5" r="1"/>
		<circle id="Oval-14-Copy-26_1_" class="st16" cx="260.5" cy="230.5" r="1"/>
		<circle id="Oval-14-Copy-27_1_" class="st16" cx="330.5" cy="60.5" r="1"/>
		<circle id="Oval-14-Copy-28_1_" class="st16" cx="370.5" cy="30.5" r="1"/>
		<circle id="Oval-14-Copy-29_1_" class="st16" cx="360.5" cy="120.5" r="1"/>
		<circle id="Oval-14-Copy-7_1_" class="st16" cx="560.5" cy="120.5" r="1"/>
		<circle id="Oval-14-Copy-8_1_" class="st16" cx="620.5" cy="140.5" r="1"/>
		<circle id="Oval-14-Copy-9_1_" class="st16" cx="620.5" cy="0.5" r="1"/>
	</g>
	
		<radialGradient id="_x31_0101010-10111010101-copy_1_" cx="49.97" cy="0.7968" r="1.1079" gradientTransform="matrix(52.9273 248.4244 619.0316 -131.8859 -2813.7458 -12023.4844)" gradientUnits="userSpaceOnUse">
		<stop  offset="0" style="stop-color:#B7568D;stop-opacity:0"/>
		<stop  offset="1" style="stop-color:#D52B74"/>
	</radialGradient>
	<path id="_x31_0101010-10111010101-copy" class="st17" d="M627.3,78.4l0.7,0.2l1-6l-0.9-0.3l-0.8,4.8c-0.3-0.4-0.6-0.8-1.1-1.1
		l-0.2,1c0.2,0.1,0.5,0.3,0.7,0.6C627,77.9,627.2,78.1,627.3,78.4z M635.3,80.5c0.7,0.2,1.3,0,1.8-0.4s0.8-1.1,1.1-2
		c0.2-0.9,0.2-1.7,0-2.3c-0.2-0.7-0.7-1.1-1.3-1.3c-0.7-0.2-1.3,0-1.8,0.4s-0.8,1.1-1.1,2c-0.2,0.9-0.2,1.7,0,2.3
		C634.1,79.9,634.6,80.3,635.3,80.5z M635.5,79.5c-0.4-0.1-0.7-0.4-0.7-1c0-0.4,0-0.8,0.2-1.4c0.1-0.6,0.3-1,0.5-1.3
		c0.3-0.4,0.7-0.6,1.1-0.5c0.4,0.1,0.7,0.4,0.7,1c0,0.4,0,0.8-0.2,1.4c-0.1,0.6-0.3,1-0.5,1.3C636.3,79.5,635.9,79.7,635.5,79.5z
		 M642,82.7l0.8,0.2l1.9-6.1l-1-0.3l-1.5,4.9c-0.3-0.4-0.7-0.8-1.2-1.2l-0.3,1c0.3,0.2,0.5,0.4,0.8,0.6
		C641.7,82.1,641.9,82.4,642,82.7z M648,85.1l0.9,0.3l2.4-7.2l-1.2-0.4l-1.9,5.8c-0.3-0.5-0.7-1-1.3-1.4l-0.4,1.2
		c0.3,0.2,0.6,0.4,0.9,0.8C647.6,84.5,647.8,84.8,648,85.1z M654.7,87.5c0.8,0.3,1.5,0.2,2.1-0.3s1.1-1.2,1.4-2.3
		c0.4-1.1,0.4-2,0.3-2.7c-0.2-0.8-0.7-1.4-1.4-1.7c-0.8-0.3-1.5-0.2-2.1,0.3s-1.1,1.2-1.4,2.3c-0.4,1.1-0.4,2-0.3,2.7
		C653.5,86.7,654,87.2,654.7,87.5z M655,86.6c-0.5-0.2-0.8-0.6-0.8-1.3c0-0.5,0.1-1.1,0.3-1.8c0.2-0.7,0.5-1.2,0.8-1.6
		c0.4-0.5,0.9-0.7,1.4-0.5s0.8,0.7,0.8,1.3c0,0.5-0.1,1.1-0.3,1.8c-0.2,0.7-0.5,1.2-0.8,1.6C656,86.7,655.6,86.8,655,86.6z
		 M662.6,90.4l0.8,0.4l2.7-7.2l-1.1-0.5l-2.2,5.7c-0.3-0.6-0.7-1.1-1.2-1.6l-0.4,1.2c0.3,0.2,0.5,0.5,0.8,0.9
		C662.3,89.7,662.5,90.1,662.6,90.4z M668.4,93l0.9,0.4l3.7-7.3l-1.2-0.6l-2.9,5.9c-0.2-0.6-0.7-1.2-1.2-1.7l-0.6,1.2
		c0.3,0.2,0.6,0.6,0.8,0.9C668.1,92.3,668.3,92.7,668.4,93z M675.6,96.4c0.9,0.5,1.8,0.5,2.7,0c0.9-0.4,1.6-1.3,2.3-2.4
		c0.7-1.2,0.9-2.2,0.9-3.2c-0.1-1-0.6-1.7-1.5-2.2s-1.8-0.5-2.7,0c-0.9,0.4-1.6,1.3-2.3,2.4s-0.9,2.2-0.9,3.2
		C674.2,95.2,674.7,96,675.6,96.4z M676,95.6c-0.7-0.3-0.9-1-0.8-1.8c0.1-0.6,0.4-1.3,0.9-2.2c0.5-0.9,0.9-1.5,1.4-1.9
		c0.7-0.6,1.3-0.7,2-0.4c0.7,0.3,0.9,1,0.8,1.8c-0.1,0.6-0.4,1.3-0.9,2.2c-0.5,0.9-1,1.5-1.4,1.9C677.3,95.9,676.6,96,676,95.6z
		 M683.6,101.6l1,0.7l4.6-8.3l-1.3-0.9l-3.7,6.6c-0.2-0.8-0.6-1.5-1.2-2.3l-0.8,1.3c0.3,0.3,0.6,0.8,0.8,1.3
		C683.3,100.7,683.5,101.2,683.6,101.6z M688.7,105.6l1,0.7l5.7-8.5l-1.4-1l-4.5,6.8c-0.2-0.8-0.6-1.6-1.2-2.4l-0.9,1.4
		c0.3,0.4,0.6,0.8,0.9,1.4C688.5,104.6,688.6,105.1,688.7,105.6z M693.8,109.6l1.1,0.8l6.8-8.6l-1.4-1.1l-5.4,6.9
		c-0.2-0.9-0.5-1.7-1.2-2.6l-1.1,1.4c0.3,0.4,0.6,0.9,0.8,1.5C693.6,108.5,693.7,109.1,693.8,109.6z M699.1,114.9
		c1,0.9,2.2,1.2,3.5,0.8c1.3-0.3,2.5-1.2,3.7-2.6s1.9-2.7,2.1-4c0.2-1.4-0.3-2.5-1.3-3.4s-2.2-1.2-3.5-0.8c-1.3,0.3-2.5,1.2-3.7,2.6
		s-1.9,2.7-2.1,4C697.6,112.9,698,114,699.1,114.9z M700.1,113.7c-0.7-0.6-0.9-1.4-0.5-2.5c0.3-0.7,0.8-1.5,1.6-2.5
		c0.8-0.9,1.5-1.6,2.2-1.9c1-0.5,1.8-0.5,2.5,0.1s0.8,1.4,0.5,2.5c-0.3,0.7-0.8,1.5-1.6,2.5c-0.8,0.9-1.5,1.6-2.2,1.9
		C701.6,114.3,700.8,114.3,700.1,113.7z M705.9,122.1c0.9,1,2.1,1.4,3.4,1.1c1.3-0.2,2.6-1,3.9-2.2c1.3-1.3,2.1-2.5,2.4-3.8
		c0.3-1.3,0-2.5-1-3.5s-2.1-1.4-3.4-1.1c-1.3,0.2-2.6,1-3.9,2.2c-1.3,1.3-2.1,2.5-2.4,3.8C704.6,120,705,121.1,705.9,122.1z
		 M707.1,121c-0.6-0.7-0.7-1.5-0.2-2.5c0.3-0.7,0.9-1.4,1.8-2.3c0.9-0.8,1.7-1.4,2.4-1.7c1-0.4,1.8-0.3,2.5,0.3
		c0.6,0.7,0.7,1.5,0.2,2.5c-0.3,0.7-0.9,1.5-1.8,2.3c-0.9,0.9-1.7,1.4-2.4,1.7C708.5,121.8,707.7,121.6,707.1,121z M709.5,128.7
		l0.9,1.1l9.3-7.2l-1.2-1.5l-7.4,5.8c0.1-1-0.1-1.9-0.5-3l-1.5,1.2c0.2,0.5,0.4,1.1,0.5,1.7C709.6,127.6,709.6,128.2,709.5,128.7z
		 M712.5,133.4l0.8,1.2l9.8-6.5l-1.1-1.6l-7.8,5.2c0.1-0.9,0.1-1.9-0.3-3l-1.6,1.1c0.2,0.5,0.3,1.1,0.3,1.8
		C712.7,132.3,712.6,132.9,712.5,133.4z M715.1,138.4l0.7,1.3l10.3-5.7l-0.9-1.7l-8.2,4.5c0.2-0.9,0.2-1.9,0-3l-1.7,0.9
		c0.1,0.5,0.2,1.1,0.2,1.8C715.4,137.2,715.3,137.8,715.1,138.4z M717.6,144.6c0.6,1.2,1.5,2,2.9,2.2c1.3,0.2,2.8-0.1,4.4-0.8
		c1.7-0.8,2.9-1.7,3.6-2.8c0.7-1.2,0.8-2.4,0.3-3.6c-0.6-1.3-1.5-2-2.9-2.2c-1.3-0.2-2.8,0.1-4.4,0.8c-1.7,0.8-2.9,1.7-3.6,2.8
		C717.1,142.1,717,143.3,717.6,144.6z M719.1,143.9c-0.4-0.9-0.2-1.7,0.6-2.4c0.5-0.5,1.4-1,2.5-1.5s2-0.8,2.8-0.8
		c1.1-0.1,1.8,0.3,2.2,1.2c0.4,0.8,0.2,1.7-0.6,2.4c-0.6,0.5-1.4,1.1-2.5,1.5c-1.1,0.5-2.1,0.8-2.8,0.8
		C720.2,145.1,719.4,144.7,719.1,143.9z M719.7,151.2c0.3-0.5,0.5-1.1,0.7-1.7c0.1-0.7,0.2-1.3,0.2-1.8l1.8-0.6c0,1.1-0.2,2.1-0.6,3
		l9-2.7l0.6,1.8l-11.2,3.4L719.7,151.2z M721.3,161c0.4-0.4,0.7-1,0.9-1.6s0.4-1.2,0.5-1.8l1.9-0.3c-0.2,1.1-0.5,2.1-1,2.8l9.3-1.3
		l0.3,1.9l-11.6,1.6L721.3,161z M721.3,167.7c0.1,1.4,0.7,2.4,1.9,3.1c1.1,0.7,2.6,0.9,4.4,0.8c1.8-0.1,3.3-0.5,4.3-1.3
		c1.1-0.8,1.6-1.9,1.5-3.3c-0.1-1.4-0.7-2.4-1.9-3.1c-1.1-0.7-2.6-0.9-4.4-0.8c-1.8,0.1-3.3,0.5-4.3,1.3
		C721.7,165.2,721.2,166.3,721.3,167.7z M722.9,167.6c0-0.9,0.4-1.6,1.5-2c0.7-0.3,1.7-0.5,2.9-0.5c1.2-0.1,2.2,0,2.9,0.2
		c1.1,0.3,1.6,0.9,1.7,1.9c0,0.9-0.4,1.6-1.5,2c-0.7,0.3-1.7,0.5-2.9,0.5c-1.2,0.1-2.2,0-2.9-0.2C723.5,169.1,723,168.5,722.9,167.6
		z M720.9,174.7l-0.1,1.4l11.7,0.8l0.1-1.9l-9.4-0.6c0.7-0.7,1.2-1.5,1.6-2.6l-1.9-0.1c-0.2,0.5-0.4,1.1-0.8,1.6
		C721.8,173.9,721.4,174.4,720.9,174.7z M719.7,181.4c-0.2,1.3,0.2,2.5,1.2,3.4s2.4,1.4,4.2,1.7s3.3,0.1,4.5-0.5s2-1.6,2.1-2.9
		c0.2-1.4-0.2-2.5-1.2-3.4s-2.4-1.4-4.2-1.7s-3.3-0.1-4.5,0.5C720.6,179,719.9,180,719.7,181.4z M721.3,181.6
		c0.1-0.9,0.7-1.5,1.8-1.7c0.7-0.2,1.7-0.2,2.9,0s2.1,0.4,2.8,0.8c1,0.5,1.4,1.2,1.3,2.2c-0.1,0.9-0.7,1.5-1.8,1.7
		c-0.8,0.2-1.7,0.2-2.9,0s-2.2-0.4-2.8-0.8C721.6,183.2,721.2,182.5,721.3,181.6z M718.1,188.5l-0.4,1.4l11.4,2.8l0.5-1.9l-9.1-2.3
		c0.8-0.5,1.5-1.3,2-2.2l-1.8-0.5c-0.3,0.5-0.6,1-1.1,1.5C719,187.8,718.5,188.2,718.1,188.5z M715.7,194.9
		c-0.4,1.3-0.2,2.5,0.7,3.6c0.8,1,2.1,1.8,3.8,2.4c1.8,0.6,3.3,0.7,4.5,0.3c1.3-0.4,2.2-1.2,2.6-2.5c0.4-1.3,0.2-2.5-0.7-3.6
		c-0.8-1-2.1-1.8-3.8-2.4c-1.8-0.6-3.3-0.7-4.5-0.3C717,192.8,716.1,193.6,715.7,194.9z M717.3,195.4c0.3-0.9,1-1.4,2.1-1.4
		c0.8,0,1.7,0.1,2.9,0.5s2,0.8,2.6,1.3c0.9,0.7,1.2,1.5,0.9,2.3c-0.3,0.9-1,1.3-2.1,1.4c-0.8,0-1.7-0.1-2.9-0.5s-2.1-0.8-2.6-1.3
		C717.3,197.1,717,196.3,717.3,195.4z M713,201.9l-0.6,1.3l10.8,4.5l0.7-1.8l-8.7-3.6c0.9-0.4,1.6-1,2.3-1.9l-1.8-0.7
		c-0.3,0.4-0.7,0.9-1.3,1.3C714.1,201.4,713.5,201.7,713,201.9z M709.7,208.1c-0.6,1.2-0.5,2.4,0.2,3.6c0.7,1.1,1.8,2.1,3.5,2.9
		s3.1,1.1,4.4,0.9c1.4-0.2,2.3-0.9,2.9-2.2c0.6-1.2,0.5-2.5-0.2-3.6s-1.8-2.1-3.5-2.9c-1.7-0.8-3.1-1.1-4.4-0.9
		C711.3,206.2,710.3,206.9,709.7,208.1z M711.2,208.8c0.4-0.8,1.1-1.2,2.3-1.1c0.8,0.1,1.7,0.4,2.8,0.9s1.9,1.1,2.5,1.6
		c0.8,0.8,1,1.6,0.6,2.4c-0.4,0.8-1.2,1.2-2.3,1.1c-0.8-0.1-1.7-0.4-2.8-0.9s-1.9-1.1-2.5-1.6C711,210.5,710.8,209.7,711.2,208.8z
		 M703.6,219.1l-0.7,1.2l10,6.1l1-1.6l-8-4.9c0.9-0.3,1.8-0.8,2.6-1.5l-1.6-1c-0.4,0.4-0.9,0.7-1.5,1.1
		C704.7,218.7,704.1,218.9,703.6,219.1z M699.4,224.9c-0.8,1.1-0.9,2.3-0.3,3.6c0.5,1.2,1.5,2.3,3.1,3.3c1.5,1,3,1.5,4.3,1.5
		c1.4,0,2.4-0.6,3.2-1.7c0.8-1.1,0.9-2.4,0.3-3.6c-0.5-1.2-1.5-2.3-3.1-3.3s-3-1.5-4.3-1.5C701.2,223.2,700.2,223.7,699.4,224.9z
		 M700.8,225.8c0.5-0.8,1.3-1,2.4-0.8c0.7,0.2,1.6,0.6,2.6,1.3s1.7,1.3,2.2,1.9c0.7,0.9,0.7,1.7,0.2,2.5s-1.3,1-2.4,0.8
		c-0.7-0.2-1.6-0.6-2.6-1.3s-1.8-1.3-2.2-1.9C700.3,227.4,700.3,226.6,700.8,225.8z M694.9,231.4l-0.9,1.2l9.4,7l1.1-1.5l-7.6-5.6
		c0.9-0.2,1.8-0.6,2.7-1.3l-1.5-1.1c-0.4,0.3-0.9,0.7-1.6,0.9C696,231.1,695.4,231.3,694.9,231.4z M691.1,236.1l-0.9,1.1l9.2,7.3
		l1.2-1.5l-7.4-5.8c0.9-0.2,1.9-0.6,2.8-1.2l-1.5-1.2c-0.4,0.3-1,0.6-1.6,0.9C692.2,235.9,691.6,236.1,691.1,236.1z M687.1,240.8
		l-0.9,1.1l9,7.5l1.2-1.5l-7.2-6.1c0.9-0.1,1.9-0.5,2.8-1.1l-1.5-1.2c-0.4,0.3-1,0.6-1.6,0.8C688.3,240.7,687.7,240.8,687.1,240.8z
		 M682,246.1c-0.9,1-1.2,2.2-0.9,3.5s1.2,2.5,2.6,3.7c1.4,1.2,2.7,1.9,4,2.1c1.4,0.2,2.5-0.2,3.4-1.3c0.9-1,1.2-2.2,0.9-3.5
		s-1.2-2.5-2.6-3.7c-1.4-1.2-2.7-1.9-4-2.1C684.1,244.7,683,245.1,682,246.1z M683.3,247.2c0.6-0.7,1.4-0.9,2.5-0.4
		c0.7,0.3,1.5,0.8,2.4,1.6s1.5,1.6,1.9,2.2c0.5,1,0.5,1.8-0.1,2.5s-1.4,0.8-2.5,0.4c-0.7-0.3-1.5-0.8-2.4-1.6s-1.6-1.6-1.9-2.2
		C682.6,248.7,682.7,247.9,683.3,247.2z M676.6,252.1l-1,1l8.4,8.1l1.3-1.4l-6.8-6.5c1-0.1,1.9-0.4,2.9-0.9l-1.4-1.3
		c-0.5,0.3-1,0.5-1.7,0.7C677.8,252,677.2,252.1,676.6,252.1z M671.2,257c-1,1-1.3,2.1-1.1,3.5c0.2,1.3,1,2.6,2.3,3.9
		s2.6,2.1,3.9,2.4c1.3,0.3,2.5-0.1,3.5-1c1-1,1.3-2.1,1.1-3.5c-0.2-1.3-1-2.6-2.3-3.9s-2.6-2.1-3.9-2.4
		C673.4,255.7,672.2,256.1,671.2,257z M672.4,258.2c0.7-0.7,1.5-0.8,2.5-0.3c0.7,0.3,1.5,0.9,2.3,1.8c0.9,0.9,1.4,1.6,1.8,2.3
		c0.5,1,0.4,1.8-0.3,2.5c-0.7,0.6-1.5,0.7-2.5,0.3c-0.7-0.3-1.5-0.9-2.3-1.8c-0.9-0.9-1.5-1.7-1.8-2.3
		C671.6,259.7,671.7,258.8,672.4,258.2z M665.4,262.7l-1.1,1l8,8.6l1.4-1.3l-6.4-6.9c1,0,1.9-0.3,2.9-0.8l-1.3-1.4
		c-0.5,0.3-1,0.5-1.7,0.6C666.6,262.7,666,262.7,665.4,262.7z M659.8,267.4c-1,0.9-1.4,2-1.3,3.4c0.2,1.3,0.9,2.6,2.1,4
		s2.5,2.2,3.7,2.6c1.3,0.3,2.5,0.1,3.5-0.8s1.4-2.1,1.3-3.4c-0.2-1.3-0.9-2.6-2.1-4c-1.2-1.4-2.5-2.2-3.7-2.6
		C662,266.2,660.8,266.5,659.8,267.4z M660.8,268.6c0.7-0.6,1.5-0.7,2.5-0.1c0.7,0.4,1.4,1,2.2,1.9s1.4,1.7,1.6,2.4
		c0.4,1,0.3,1.9-0.4,2.5s-1.5,0.7-2.5,0.1c-0.7-0.4-1.4-1-2.2-1.9s-1.4-1.7-1.6-2.4C660,270.1,660.2,269.2,660.8,268.6z
		 M653.6,272.8l-1.1,0.9l7.5,9l1.5-1.2l-6-7.2c1,0,1.9-0.2,3-0.6l-1.2-1.5c-0.5,0.2-1.1,0.4-1.7,0.5
		C654.8,272.9,654.2,272.9,653.6,272.8z M648.7,276.7l-1.1,0.9l7.4,9.1l1.5-1.2l-5.9-7.3c1,0.1,1.9-0.1,3-0.6l-1.2-1.5
		c-0.5,0.2-1.1,0.4-1.7,0.5C649.9,276.8,649.3,276.8,648.7,276.7z M642.8,281.1c-1.1,0.8-1.6,1.9-1.5,3.3c0.1,1.3,0.7,2.7,1.8,4.1
		c1.1,1.5,2.3,2.4,3.5,2.8c1.3,0.4,2.5,0.2,3.6-0.6c1.1-0.8,1.6-2,1.5-3.3s-0.7-2.7-1.8-4.1c-1.1-1.5-2.3-2.4-3.5-2.8
		C645,280,643.8,280.2,642.8,281.1z M643.8,282.4c0.7-0.6,1.6-0.6,2.5,0c0.6,0.4,1.3,1.1,2.1,2.1c0.7,1,1.2,1.8,1.5,2.5
		c0.3,1,0.1,1.9-0.6,2.4c-0.7,0.6-1.6,0.6-2.5,0c-0.7-0.4-1.3-1.1-2.1-2.1s-1.2-1.8-1.5-2.5C642.8,283.7,643,282.9,643.8,282.4z
		 M636.3,286.2l-1.2,0.9l7,9.4l1.5-1.1l-5.6-7.6c0.9,0.1,1.9,0,3-0.4l-1.1-1.5c-0.5,0.2-1.1,0.4-1.8,0.4S636.8,286.3,636.3,286.2z
		 M630.1,290.3c-1.1,0.8-1.7,1.9-1.6,3.2c0,1.3,0.6,2.7,1.7,4.2c1.1,1.5,2.2,2.5,3.4,2.9c1.3,0.5,2.5,0.3,3.6-0.5s1.7-1.9,1.6-3.2
		c0-1.3-0.6-2.7-1.7-4.2c-1.1-1.5-2.2-2.5-3.4-2.9C632.4,289.3,631.2,289.5,630.1,290.3z M631,291.6c0.8-0.5,1.6-0.5,2.5,0.1
		c0.6,0.4,1.3,1.1,2,2.1s1.2,1.9,1.4,2.6c0.3,1.1,0.1,1.9-0.7,2.4c-0.7,0.5-1.6,0.5-2.5-0.1c-0.6-0.4-1.3-1.1-2-2.1
		s-1.2-1.9-1.4-2.6C630.1,292.9,630.3,292.1,631,291.6z M623.4,295l-1.2,0.8l6.6,9.7l1.6-1.1l-5.3-7.8c0.9,0.1,1.9,0,3-0.3l-1.1-1.6
		c-0.5,0.2-1.1,0.3-1.8,0.4C624.6,295.2,624,295.2,623.4,295z M617.1,298.9c-1.1,0.7-1.7,1.8-1.7,3.2c0,1.3,0.5,2.7,1.5,4.3
		c1,1.5,2.1,2.6,3.3,3.1c1.3,0.5,2.5,0.4,3.6-0.3c1.2-0.8,1.7-1.8,1.7-3.2c0-1.3-0.5-2.7-1.5-4.3c-1-1.5-2.1-2.6-3.3-3.1
		C619.4,298.1,618.2,298.2,617.1,298.9z M618,300.3c0.8-0.5,1.6-0.4,2.5,0.2c0.6,0.4,1.2,1.2,1.9,2.2s1.1,1.9,1.3,2.6
		c0.3,1.1,0,1.9-0.8,2.4s-1.6,0.4-2.5-0.2c-0.6-0.5-1.3-1.2-1.9-2.2c-0.7-1-1.1-1.9-1.3-2.6C616.9,301.6,617.2,300.8,618,300.3z
		 M605.8,306.2l-1.2,0.8l6.1,10l1.6-1l-4.9-8c0.9,0.2,1.9,0.1,3-0.2l-1-1.6c-0.5,0.2-1.1,0.3-1.8,0.3
		C607,306.4,606.4,306.3,605.8,306.2z M599.3,309.8c-1.2,0.7-1.8,1.7-1.9,3.1c-0.1,1.3,0.4,2.7,1.3,4.3s2,2.7,3.2,3.2
		c1.2,0.6,2.5,0.5,3.6-0.2c1.2-0.7,1.8-1.7,1.9-3.1c0.1-1.3-0.4-2.7-1.3-4.3s-2-2.7-3.2-3.2C601.7,309,600.5,309.1,599.3,309.8z
		 M600.1,311.2c0.8-0.5,1.6-0.4,2.5,0.3c0.6,0.5,1.2,1.2,1.8,2.3c0.6,1,1,1.9,1.1,2.7c0.2,1.1-0.1,1.9-0.9,2.3
		c-0.8,0.5-1.6,0.4-2.5-0.3c-0.6-0.5-1.2-1.3-1.8-2.3c-0.6-1.1-1-2-1.1-2.7C599,312.4,599.3,311.6,600.1,311.2z M592.2,314.1
		l-1.3,0.7l5.8,10.2l1.7-0.9l-4.6-8.2c0.9,0.2,1.9,0.2,3-0.1l-0.9-1.7c-0.5,0.1-1.1,0.2-1.8,0.2
		C593.3,314.3,592.7,314.2,592.2,314.1z M585.5,317.5c-1.2,0.7-1.9,1.7-2,3s0.3,2.8,1.2,4.4s1.9,2.7,3.1,3.3
		c1.2,0.6,2.4,0.6,3.6-0.1c1.2-0.7,1.9-1.7,2-3s-0.3-2.8-1.2-4.4s-1.9-2.7-3.1-3.3C587.9,316.8,586.7,316.8,585.5,317.5z
		 M586.3,318.9c0.8-0.5,1.6-0.3,2.5,0.4c0.6,0.5,1.2,1.3,1.7,2.4c0.6,1.1,0.9,2,1.1,2.7c0.2,1.1-0.2,1.9-1,2.3s-1.6,0.3-2.5-0.4
		c-0.6-0.5-1.2-1.3-1.7-2.4c-0.6-1.1-0.9-2-1.1-2.7C585.2,320.1,585.5,319.3,586.3,318.9z M578.3,321.5c0.5,0.2,1.2,0.3,1.8,0.3
		c0.7,0,1.3,0,1.8-0.2l0.9,1.7c-1.1,0.2-2.1,0.2-3,0l4.4,8.3l-1.7,0.9l-5.5-10.4L578.3,321.5z M572.6,324.5c0.5,0.2,1.1,0.3,1.8,0.3
		s1.3,0,1.8-0.2l0.9,1.7c-1.1,0.2-2.1,0.2-3,0l4.3,8.4l-1.7,0.9l-5.4-10.4L572.6,324.5z M567,327.3c0.5,0.2,1.1,0.3,1.8,0.4
		c0.7,0,1.3,0,1.8-0.1l0.9,1.7c-1.1,0.2-2.1,0.2-3-0.1l4.2,8.4l-1.7,0.9l-5.2-10.5L567,327.3z M560.1,330.3
		c-1.2,0.6-1.9,1.6-2.1,2.9c-0.2,1.3,0.1,2.8,0.9,4.4c0.8,1.7,1.8,2.8,2.9,3.5c1.2,0.7,2.4,0.7,3.6,0.1c1.2-0.6,1.9-1.6,2.1-2.9
		c0.2-1.3-0.1-2.8-0.9-4.4c-0.8-1.7-1.8-2.8-2.9-3.5C562.6,329.8,561.4,329.7,560.1,330.3z M560.8,331.8c0.8-0.4,1.7-0.2,2.5,0.5
		c0.5,0.5,1.1,1.3,1.6,2.4s0.8,2,0.9,2.8c0.1,1.1-0.2,1.9-1.1,2.3c-0.8,0.4-1.6,0.2-2.5-0.5c-0.6-0.5-1.1-1.3-1.6-2.4
		s-0.8-2-0.9-2.8C559.6,333,560,332.2,560.8,331.8z M552.7,334c0.5,0.2,1.1,0.3,1.8,0.4c0.7,0,1.3,0,1.8-0.1l0.8,1.7
		c-1.1,0.2-2.1,0.1-3-0.2l4,8.5l-1.7,0.8l-4.9-10.6L552.7,334z M545.8,336.9c-1.2,0.6-2,1.5-2.2,2.9c-0.2,1.3,0.1,2.8,0.8,4.4
		c0.8,1.7,1.7,2.9,2.8,3.5c1.2,0.7,2.4,0.8,3.6,0.2c1.3-0.6,2-1.5,2.2-2.9c0.2-1.3-0.1-2.8-0.8-4.4c-0.8-1.7-1.7-2.9-2.8-3.5
		C548.2,336.4,547,336.4,545.8,336.9z M546.4,338.4c0.9-0.4,1.7-0.2,2.4,0.6c0.5,0.5,1,1.4,1.6,2.5c0.5,1.1,0.8,2,0.8,2.8
		c0.1,1.1-0.3,1.8-1.2,2.2c-0.8,0.4-1.7,0.2-2.4-0.6c-0.5-0.5-1.1-1.4-1.6-2.5s-0.8-2.1-0.8-2.8
		C545.2,339.5,545.6,338.8,546.4,338.4z M533.5,342.4c0.5,0.2,1.1,0.4,1.8,0.5s1.3,0.1,1.8,0l0.7,1.8c-1.1,0.1-2.1,0-3-0.3l3.7,8.7
		l-1.8,0.7l-4.6-10.8L533.5,342.4z M526.5,345c-1.3,0.5-2,1.4-2.3,2.8c-0.3,1.3,0,2.8,0.7,4.5s1.6,2.9,2.7,3.6
		c1.1,0.8,2.3,0.9,3.6,0.4s2-1.5,2.3-2.8s0-2.8-0.7-4.5s-1.6-2.9-2.7-3.6C529,344.6,527.8,344.5,526.5,345z M527.1,346.5
		c0.9-0.4,1.7-0.1,2.4,0.7c0.5,0.6,1,1.4,1.5,2.5s0.7,2.1,0.7,2.8c0,1.1-0.4,1.8-1.2,2.2c-0.9,0.3-1.7,0.1-2.4-0.7
		c-0.5-0.6-1-1.4-1.5-2.5s-0.7-2.1-0.7-2.8C525.8,347.6,526.3,346.9,527.1,346.5z M518.8,348.3c0.5,0.2,1.1,0.4,1.8,0.5
		s1.3,0.1,1.8,0l0.7,1.8c-1.1,0.1-2.1,0-3-0.3l3.4,8.8l-1.8,0.7l-4.3-10.9L518.8,348.3z M511.8,350.8c-1.3,0.5-2.1,1.4-2.4,2.7
		c-0.3,1.3-0.1,2.8,0.6,4.5s1.5,3,2.6,3.7c1.1,0.8,2.3,0.9,3.6,0.5c1.3-0.5,2.1-1.4,2.4-2.7c0.3-1.3,0.1-2.8-0.6-4.5
		c-0.7-1.7-1.5-3-2.6-3.7C514.2,350.4,513,350.3,511.8,350.8z M512.3,352.3c0.9-0.3,1.7-0.1,2.4,0.8c0.5,0.6,1,1.4,1.4,2.6
		c0.4,1.1,0.7,2.1,0.7,2.9c0,1.1-0.4,1.8-1.3,2.2c-0.9,0.3-1.7,0.1-2.4-0.8c-0.5-0.6-1-1.4-1.4-2.6c-0.4-1.1-0.7-2.1-0.7-2.9
		C511,353.3,511.5,352.6,512.3,352.3z M504,353.8c0.5,0.3,1.1,0.4,1.8,0.6c0.7,0.1,1.3,0.1,1.8,0.1l0.7,1.8c-1.1,0.1-2.1-0.1-3-0.4
		l3.2,8.8l-1.8,0.7l-4-11L504,353.8z M496.8,356.1c-1.3,0.5-2.1,1.3-2.4,2.7c-0.3,1.3-0.2,2.8,0.4,4.5s1.4,3,2.5,3.8s2.3,1,3.6,0.5
		c1.3-0.5,2.1-1.4,2.4-2.7c0.3-1.3,0.2-2.8-0.4-4.5s-1.4-3-2.5-3.8C499.3,355.8,498.1,355.7,496.8,356.1z M497.4,357.7
		c0.9-0.3,1.7-0.1,2.4,0.8c0.5,0.6,0.9,1.4,1.3,2.6c0.4,1.1,0.6,2.1,0.6,2.9c0,1.1-0.5,1.8-1.3,2.1c-0.9,0.3-1.7,0-2.4-0.8
		c-0.5-0.6-0.9-1.5-1.3-2.6c-0.4-1.2-0.6-2.1-0.6-2.9C496,358.7,496.5,358,497.4,357.7z M489,359c0.5,0.3,1.1,0.5,1.8,0.6
		c0.7,0.1,1.3,0.2,1.8,0.1l0.6,1.8c-1.1,0.1-2.1-0.1-3-0.5l3,8.9l-1.8,0.6l-3.8-11.1L489,359z M481.8,361.1
		c-1.3,0.4-2.1,1.3-2.5,2.6c-0.3,1.3-0.2,2.8,0.3,4.5c0.6,1.7,1.4,3,2.4,3.8c1.1,0.8,2.3,1,3.6,0.6c1.3-0.4,2.1-1.3,2.5-2.6
		c0.3-1.3,0.2-2.8-0.3-4.5c-0.6-1.7-1.4-3-2.4-3.8C484.3,360.9,483.1,360.7,481.8,361.1z M482.3,362.7c0.9-0.3,1.7,0,2.4,0.9
		c0.5,0.6,0.9,1.5,1.3,2.6c0.4,1.2,0.6,2.1,0.5,2.9c0,1.1-0.5,1.8-1.4,2.1c-0.9,0.3-1.7,0-2.4-0.9c-0.5-0.6-0.9-1.5-1.3-2.6
		c-0.4-1.2-0.6-2.1-0.5-2.9C481,363.6,481.5,362.9,482.3,362.7z M473.9,363.8c0.5,0.3,1.1,0.5,1.8,0.7c0.7,0.1,1.3,0.2,1.8,0.2
		l0.6,1.8c-1.1,0-2.1-0.2-3-0.6l2.8,9l-1.8,0.6l-3.5-11.2L473.9,363.8z M462.9,367.1c0.5,0.3,1.1,0.5,1.7,0.7
		c0.7,0.1,1.3,0.2,1.8,0.2l0.5,1.8c-1.1,0-2.1-0.2-3-0.6l2.7,9l-1.8,0.5l-3.3-11.2L462.9,367.1z M455.6,368.9
		c-1.3,0.4-2.2,1.2-2.6,2.5c-0.4,1.2-0.3,2.7,0.2,4.5s1.2,3.1,2.2,3.9c1.1,0.9,2.2,1.1,3.5,0.8c1.3-0.4,2.2-1.2,2.6-2.5
		c0.4-1.2,0.3-2.7-0.2-4.5s-1.2-3.1-2.2-3.9C458.1,368.8,456.9,368.6,455.6,368.9z M456,370.5c0.9-0.3,1.7,0.1,2.3,1
		c0.4,0.6,0.8,1.5,1.2,2.7c0.3,1.2,0.5,2.1,0.4,2.9c-0.1,1.1-0.6,1.8-1.5,2c-0.9,0.3-1.7-0.1-2.3-1c-0.4-0.6-0.8-1.5-1.2-2.7
		c-0.3-1.2-0.5-2.2-0.4-2.9C454.6,371.4,455.1,370.7,456,370.5z M447.5,371.3c0.5,0.3,1.1,0.5,1.7,0.7c0.7,0.2,1.3,0.2,1.8,0.2
		l0.5,1.8c-1.1,0-2.1-0.2-3-0.7l2.4,9.1l-1.9,0.5l-3-11.3L447.5,371.3z M441.4,372.9c0.5,0.3,1.1,0.5,1.7,0.7
		c0.7,0.2,1.3,0.3,1.8,0.2l0.5,1.8c-1.1,0-2.1-0.3-2.9-0.7l2.4,9.1l-1.9,0.5l-2.9-11.3L441.4,372.9z M434,374.5
		c-1.3,0.3-2.2,1.1-2.7,2.4c-0.4,1.2-0.4,2.7,0,4.5s1.1,3.1,2.1,4s2.2,1.2,3.5,0.9c1.3-0.3,2.2-1.1,2.7-2.4c0.4-1.2,0.4-2.7,0-4.5
		s-1.1-3.1-2.1-4C436.6,374.5,435.4,374.2,434,374.5z M434.4,376.1c0.9-0.2,1.7,0.1,2.3,1c0.4,0.6,0.8,1.5,1.1,2.7
		c0.3,1.2,0.4,2.1,0.3,2.9c-0.1,1.1-0.6,1.8-1.5,2s-1.7-0.1-2.3-1c-0.4-0.6-0.8-1.5-1.1-2.7c-0.3-1.2-0.4-2.2-0.3-2.9
		C433,377,433.5,376.3,434.4,376.1z M426,376.6c0.5,0.3,1,0.6,1.7,0.8c0.7,0.2,1.2,0.3,1.8,0.3l0.4,1.9c-1.1-0.1-2.1-0.3-2.9-0.8
		l2.2,9.2l-1.9,0.4l-2.7-11.4L426,376.6z M414.7,379.1c0.5,0.3,1,0.6,1.7,0.8c0.6,0.2,1.2,0.3,1.8,0.3l0.4,1.9
		c-1.1-0.1-2.1-0.4-2.9-0.8l2,9.2l-1.9,0.4l-2.5-11.5L414.7,379.1z M407.3,380.4c-1.3,0.3-2.3,1-2.8,2.3c-0.5,1.2-0.5,2.7-0.2,4.5
		s1,3.2,1.9,4.1c1,1,2.1,1.3,3.5,1s2.3-1.1,2.8-2.3c0.5-1.2,0.5-2.7,0.2-4.5c-0.4-1.8-1-3.2-1.9-4.1
		C409.8,380.5,408.6,380.1,407.3,380.4z M407.6,382c0.9-0.2,1.7,0.2,2.2,1.1c0.4,0.6,0.7,1.6,1,2.8c0.2,1.2,0.3,2.2,0.2,2.9
		c-0.2,1.1-0.7,1.7-1.6,1.9c-0.9,0.2-1.6-0.2-2.2-1.1c-0.4-0.7-0.7-1.6-1-2.8c-0.2-1.2-0.3-2.2-0.2-2.9
		C406.2,382.8,406.7,382.2,407.6,382z M399.2,382.2c0.5,0.3,1,0.6,1.7,0.8c0.6,0.2,1.2,0.3,1.8,0.4l0.4,1.9
		c-1.1-0.1-2.1-0.4-2.9-0.9l1.8,9.2l-2,0.4l-2.2-11.5L399.2,382.2z M392.9,383.3c0.5,0.3,1,0.6,1.7,0.9c0.6,0.2,1.2,0.3,1.8,0.4
		l0.3,1.9c-1.1-0.1-2.1-0.4-2.9-0.9l1.7,9.3l-1.9,0.3l-2.1-11.5L392.9,383.3z M386.6,384.4c0.5,0.3,1,0.6,1.7,0.9
		c0.6,0.2,1.2,0.4,1.8,0.4l0.3,1.9c-1.1-0.1-2.1-0.4-2.9-1l1.6,9.3l-1.9,0.3l-2-11.5L386.6,384.4z M379.2,385.4
		c-1.3,0.2-2.3,0.9-2.9,2.2c-0.5,1.2-0.7,2.7-0.4,4.5c0.3,1.8,0.9,3.2,1.8,4.2s2.1,1.4,3.4,1.2c1.4-0.2,2.3-1,2.9-2.2
		c0.5-1.2,0.7-2.7,0.4-4.5c-0.3-1.8-0.9-3.2-1.8-4.2S380.5,385.2,379.2,385.4z M379.4,387c0.9-0.1,1.7,0.2,2.2,1.2
		c0.4,0.7,0.7,1.6,0.9,2.8c0.2,1.2,0.2,2.2,0.1,2.9c-0.2,1.1-0.8,1.7-1.7,1.9c-0.9,0.1-1.6-0.3-2.2-1.2c-0.4-0.7-0.7-1.6-0.9-2.8
		c-0.2-1.2-0.2-2.2-0.1-2.9C378,387.8,378.5,387.1,379.4,387z M369.8,386.8c-1.3,0.2-2.3,0.9-2.9,2.2c-0.6,1.2-0.7,2.7-0.4,4.5
		c0.3,1.8,0.8,3.2,1.7,4.2c0.9,1,2.1,1.4,3.4,1.2c1.4-0.2,2.3-0.9,2.9-2.2c0.6-1.2,0.7-2.7,0.4-4.5c-0.3-1.8-0.8-3.2-1.7-4.2
		C372.3,387,371.2,386.6,369.8,386.8z M370.1,388.4c0.9-0.1,1.6,0.3,2.2,1.3c0.4,0.7,0.6,1.6,0.8,2.8c0.2,1.2,0.2,2.2,0,2.9
		c-0.2,1.1-0.8,1.7-1.7,1.8c-0.9,0.1-1.6-0.3-2.2-1.3c-0.4-0.7-0.6-1.6-0.8-2.8c-0.2-1.2-0.2-2.2,0-2.9
		C368.6,389.1,369.2,388.5,370.1,388.4z M361.6,388.1c0.4,0.4,1,0.7,1.6,0.9c0.6,0.2,1.2,0.4,1.7,0.5l0.2,1.9
		c-1.1-0.2-2.1-0.5-2.8-1.1l1.2,9.3l-1.9,0.3l-1.5-11.6L361.6,388.1z M355.2,388.8c0.4,0.4,1,0.7,1.6,1s1.2,0.4,1.7,0.5l0.2,1.9
		c-1.1-0.2-2.1-0.5-2.8-1.1l1.1,9.3l-1.9,0.2l-1.4-11.6L355.2,388.8z"/>
	
		<g id="火箭" transform="translate(615.506157, 72.547347) rotate(-73.000000) translate(-615.506157, -72.547347) translate(588.006157, 14.547347)">
		
			<linearGradient id="Rectangle-10_1_" gradientUnits="userSpaceOnUse" x1="-1157.7031" y1="-850.3011" x2="-1157.7031" y2="-849.3011" gradientTransform="matrix(53.4624 -1.770384e-05 2.446246e-05 69.5655 61927.7773 59229.1211)">
			<stop  offset="0" style="stop-color:#E74D89"/>
			<stop  offset="1" style="stop-color:#FF1865;stop-opacity:0"/>
		</linearGradient>
		<polygon id="Rectangle-10" class="st18" points="0,45.7 53.5,45.7 53.5,115.3 0,115.3 		"/>
		
			<linearGradient id="Rectangle-5_1_" gradientUnits="userSpaceOnUse" x1="-1162.1" y1="-850.2056" x2="-1162.1" y2="-851.2056" gradientTransform="matrix(34.1386 -1.384035e-05 4.712902e-05 68.9214 39694.4844 58680.5273)">
			<stop  offset="0" style="stop-color:#FF1865;stop-opacity:0"/>
			<stop  offset="0.7641" style="stop-color:#FC5684;stop-opacity:0.638"/>
			<stop  offset="1" style="stop-color:#A0387B"/>
		</linearGradient>
		<polygon id="Rectangle-5" class="st19" points="9.7,45.7 43.8,45.7 43.8,114.7 9.7,114.7 		"/>
		
			<linearGradient id="Rectangle-12_1_" gradientUnits="userSpaceOnUse" x1="-1210.6957" y1="-849.9349" x2="-1210.564" y2="-848.9287" gradientTransform="matrix(6.4413 8.194076e-06 6.657561e-05 48.3094 7827.749 41131.4258)">
			<stop  offset="0" style="stop-color:#FF1865"/>
			<stop  offset="0.2595" style="stop-color:#FF1865"/>
			<stop  offset="1" style="stop-color:#FF186D;stop-opacity:0"/>
		</linearGradient>
		<polygon id="Rectangle-12" class="st20" points="24.5,52.8 30.9,52.8 30.9,101.1 24.5,101.1 		"/>
		<path id="Rectangle-3" class="st21" d="M37.4,45.7c0,1.1-0.9,1.9-1.9,1.9H20.6c-1.1,0-1.9-0.9-1.9-1.9L37.4,45.7z"/>
		<path id="Rectangle-3-Copy" class="st22" d="M34.8,48c0,0.7-0.7,1.3-1.5,1.3H22.1c-0.8,0-1.5-0.6-1.5-1.3H34.8z"/>
		
			<rect id="Rectangle-4" x="21.9" y="49.6" transform="matrix(-0.7661 -0.6428 0.6428 -0.7661 16.3921 107.1181)" class="st23" width="11.6" height="1.9"/>
		<path id="Oval-20" class="st24" d="M54.6,43.6L54.6,43.6c-1.1-8.5-9.1-16.5-27.2-16.5c-18.3,0-26.2,8.1-27.3,16.7l0,0l0,0
			c-0.1,1,0.6,1.8,1.5,2c0.1,0,0.1,0,0.2,0l50.9,0l0,0c1,0,1.9-0.8,1.9-1.9C54.6,43.8,54.6,43.7,54.6,43.6z"/>
		<path id="Oval-20_1_" class="st21" d="M47.8,43.7L47.8,43.7C47,34.3,41,20.6,27.1,20.6c-13.7,0-19.8,13.5-20.6,22.9l0,0l0,0
			c-0.1,1.1,0.7,2.1,1.8,2.2c0.1,0,0.1,0,0.2,0l37.3,0l0,0C46.8,45.7,47.7,44.9,47.8,43.7C47.8,43.8,47.8,43.8,47.8,43.7z"/>
		<path id="Oval-18" class="st16" d="M45.3,41.4L45.3,41.4C44.1,20,35.2,0,27.6,0C19.9,0,9.9,21.7,9.7,42l0,0l0,0
			c0,2,1.6,3.7,3.6,3.7l0,0l27.8,0l0,0c2.3,0,4.1-1.9,4.1-4.1C45.3,41.5,45.3,41.4,45.3,41.4z"/>
		<path id="Oval-18_1_" class="st25" d="M45.3,41.6L45.3,41.6C44.2,20.2,35.2,0,27.6,0c0.3,24.5,0.3,39.3,0.3,45.7
			c4.1,0,8.6,0,13.5,0l0,0c2.2,0,3.9-1.8,3.9-3.9C45.3,41.7,45.3,41.7,45.3,41.6z"/>
		<path id="Oval-18_2_" class="st26" d="M39.1,43.7L39.1,43.7C38.8,21.5,32.7,0,27.6,0c0.2,24.5,0.2,39.3,0.2,45.7c2.8,0,6,0,9.4,0
			l0,0C38.2,45.7,39.1,44.8,39.1,43.7L39.1,43.7z"/>
		<g id="python" transform="translate(19.076321, 15.407798)">
			<path id="Combined-Shape_4_" class="st27" d="M6.4,8.3c-1.3,0.2-2.2,1.3-2.2,2.5l0,1.9v0.1H3.5c-1.3,0-2.4-1.3-2.7-3
				c0-0.4-0.1-0.8-0.1-1.2l0,0c0-2.3,1.3-4.1,2.8-4.1l5.5,0V3.7l-4.2,0V2.4c0-1.2,0.3-1.8,2-2.1C7.4,0.2,8,0.1,8.7,0.1
				c0.7,0,1.7,0,2.4,0.2c1.1,0.2,2,1,2,2.1l0,2.5v1.3c0,0.9-0.6,1.7-1.5,1.9c-0.2,0-0.4,0.1-0.6,0.1l-4.5,0h0.1
				C6.7,8.2,6.5,8.2,6.4,8.3z M17.3,7.1c0.1,0.5,0.2,0.9,0.2,1.5c0,0.7-0.1,1.3-0.3,1.9c-0.5,1.4-1.4,2.3-2.5,2.3l-5.5,0v0.7l4.2,0
				v1.2c0,1.2-1,1.7-2,2c-1.5,0.4-2.9,0.4-4.2,0c-1.1-0.3-2.2-0.9-2.2-2l0-2.4l0-1.4C5,10,5.6,9.3,6.5,9.1C6.7,9.1,6.9,9,7.1,9
				l4.5,0c0.1,0,0.2,0,0.4,0c1-0.3,2-1.4,2-2.8l0-1.7V4.4h0.7C15.8,4.4,16.9,5.5,17.3,7.1z"/>
			<path id="Shape_1_" class="st28" d="M6.9,3C6.4,3,6,2.6,6,2.1s0.4-0.9,0.9-0.9c0.5,0,0.9,0.4,0.9,0.9C7.8,2.6,7.4,3,6.9,3z"/>
			<path id="Shape_2_" class="st28" d="M11.1,14.1c0.5,0,0.9,0.4,0.9,0.9c0,0.5-0.4,0.9-0.9,0.9c-0.5,0-0.9-0.4-0.9-0.9
				C10.2,14.5,10.6,14.1,11.1,14.1z"/>
		</g>
	</g>
	
		<g id="机器人" transform="translate(955.784466, 413.269232) rotate(-15.000000) translate(-955.784466, -413.269232) translate(625.784466, 127.269232)">
		<g id="星球" transform="translate(0.146465, 121.674750)">
			
				<linearGradient id="Oval-5_1_" gradientUnits="userSpaceOnUse" x1="-1181.6238" y1="-156.1305" x2="-1181.7566" y2="-155.8214" gradientTransform="matrix(592.189 115.1098 64.9456 -334.1164 710164.375 84028.4844)">
				<stop  offset="0" style="stop-color:#E6DACA"/>
				<stop  offset="1" style="stop-color:#F7F2EF"/>
			</linearGradient>
			<path id="Oval-5" class="st29" d="M361.9,58.2C525.5,90,643.5,190.5,625.6,282.8S460.6,424.1,297,392.3S12.8,273.2,30.8,181
				S198.4,26.4,361.9,58.2z"/>
			
				<linearGradient id="Oval-13_2_" gradientUnits="userSpaceOnUse" x1="-1182.4636" y1="-155.7719" x2="-1182.4636" y2="-154.8841" gradientTransform="matrix(-54.5026 -19.836 15.732 -43.2262 -61695.3438 -30064.627)">
				<stop  offset="0" style="stop-color:#D6C9B9"/>
				<stop  offset="1" style="stop-color:#EFE3D3"/>
			</linearGradient>
			
				<ellipse id="Oval-13" transform="matrix(-0.6428 0.7661 -0.7661 -0.6428 597.7581 -57.8654)" class="st30" cx="312.4" cy="110.4" rx="23" ry="29"/>
			
				<linearGradient id="Oval-13_3_" gradientUnits="userSpaceOnUse" x1="-1183.4067" y1="-156.0242" x2="-1183.4067" y2="-155.1366" gradientTransform="matrix(-30.0088 -10.9216 8.6619 -23.8001 -33953.9141 -16536.5762)">
				<stop  offset="0" style="stop-color:#D6C9B9"/>
				<stop  offset="1" style="stop-color:#EFE3D3"/>
			</linearGradient>
			
				<ellipse id="Oval-13_1_" transform="matrix(-0.6428 0.7661 -0.7661 -0.6428 422.2749 -8.9771)" class="st31" cx="213.2" cy="94" rx="12.7" ry="16"/>
			
				<linearGradient id="Oval-13-Copy-4_1_" gradientUnits="userSpaceOnUse" x1="-1183.9224" y1="-156.1622" x2="-1183.9224" y2="-155.2745" gradientTransform="matrix(-24.092 -8.7682 6.9541 -19.1074 -27062.166 -13274.5342)">
				<stop  offset="0" style="stop-color:#D6C9B9"/>
				<stop  offset="1" style="stop-color:#EFE3D3"/>
			</linearGradient>
			
				<ellipse id="Oval-13-Copy-4" transform="matrix(-0.6428 0.7661 -0.7661 -0.6428 688.3698 -152.7538)" class="st32" cx="379.8" cy="84.1" rx="10.2" ry="12.8"/>
			
				<linearGradient id="Oval-13-Copy-5_1_" gradientUnits="userSpaceOnUse" x1="-1183.3359" y1="-153.8021" x2="-1183.3359" y2="-152.9144" gradientTransform="matrix(58.4083 -45.6314 -36.1905 -46.3237 63968.9531 -60937.5703)">
				<stop  offset="0" style="stop-color:#D6C9B9"/>
				<stop  offset="1" style="stop-color:#EFE3D3"/>
			</linearGradient>
			
				<ellipse id="Oval-13-Copy-5" transform="matrix(-0.829 0.5592 -0.5592 -0.829 827.5543 91.2512)" class="st33" cx="399.8" cy="172.1" rx="29.4" ry="37.1"/>
			
				<linearGradient id="Oval-13-Copy-6_1_" gradientUnits="userSpaceOnUse" x1="-1183.7321" y1="-154.2151" x2="-1183.7321" y2="-153.3273" gradientTransform="matrix(55.1603 -17.9262 -11.3216 -34.8375 64052.0234 -26446.7832)">
				<stop  offset="0" style="stop-color:#D6C9B9"/>
				<stop  offset="1" style="stop-color:#EFE3D3"/>
			</linearGradient>
			
				<ellipse id="Oval-13-Copy-6" transform="matrix(-0.9135 0.4068 -0.4068 -0.9135 999.2302 56.8392)" class="st34" cx="493.6" cy="134.6" rx="18.3" ry="29"/>
			
				<linearGradient id="Oval-13-Copy-7_1_" gradientUnits="userSpaceOnUse" x1="-1187.4479" y1="-150.438" x2="-1187.4479" y2="-149.5503" gradientTransform="matrix(19.3 -15.0782 -11.9586 -15.3069 21607.959 -20032.6113)">
				<stop  offset="0" style="stop-color:#D6C9B9"/>
				<stop  offset="1" style="stop-color:#EFE3D3"/>
			</linearGradient>
			
				<ellipse id="Oval-13-Copy-7" transform="matrix(-0.829 0.5592 -0.5592 -0.829 978.9005 42.03)" class="st35" cx="483" cy="170.6" rx="9.7" ry="12.2"/>
			
				<linearGradient id="Oval-13-Copy-9_1_" gradientUnits="userSpaceOnUse" x1="-1189.6813" y1="-148.6107" x2="-1189.6813" y2="-147.723" gradientTransform="matrix(14.1528 -11.0569 -8.7693 -11.2246 15969.002 -14696.5234)">
				<stop  offset="0" style="stop-color:#D6C9B9"/>
				<stop  offset="1" style="stop-color:#EFE3D3"/>
			</linearGradient>
			
				<ellipse id="Oval-13-Copy-9" transform="matrix(-0.829 0.5592 -0.5592 -0.829 855.8756 -16.1193)" class="st36" cx="430.4" cy="122.8" rx="7.1" ry="9"/>
			
				<linearGradient id="Oval-13-Copy-8_1_" gradientUnits="userSpaceOnUse" x1="-1185.6365" y1="-155.3207" x2="-1185.6365" y2="-154.433" gradientTransform="matrix(25.8211 1.8068 1.4331 -20.4788 31403.5762 -852.8637)">
				<stop  offset="0" style="stop-color:#D6C9B9"/>
				<stop  offset="1" style="stop-color:#EFE3D3"/>
			</linearGradient>
			
				<ellipse id="Oval-13-Copy-8" transform="matrix(-0.9744 0.2249 -0.2249 -0.9744 1154.8182 224.6204)" class="st37" cx="564.6" cy="178.1" rx="10.3" ry="12.9"/>
			
				<linearGradient id="Oval-13-Copy-2_1_" gradientUnits="userSpaceOnUse" x1="-1185.9667" y1="-156.7091" x2="-1185.9667" y2="-155.8214" gradientTransform="matrix(-13.5377 -4.927 3.9077 -10.7368 -15153.249 -7456.6655)">
				<stop  offset="0" style="stop-color:#D6C9B9"/>
				<stop  offset="1" style="stop-color:#EFE3D3"/>
			</linearGradient>
			
				<ellipse id="Oval-13-Copy-2" transform="matrix(-0.6428 0.7661 -0.7661 -0.6428 530.643 -116.0839)" class="st38" cx="292.4" cy="65.7" rx="5.7" ry="7.2"/>
		</g>
		<g id="Group" transform="translate(45.554632, 0.711760)">
			<g id="脖子" transform="translate(88.747483, 103.602612)">
			</g>
			<g id="手臂" transform="translate(0.000000, 57.131211)">
				<path id="Rectangle-30" class="st39" d="M81.1,114.9c2.3-3.2,0.1-4.9-6.4-5.2c-9.8-0.4-13.5-0.6-23.1,4.1s-17.8,12.2-22.3,25
					l-5.9,33.3c0,8.5-3.7,8.8-12.2,8.8s-9.7,4-9.7-4.5l7-38.4c6.8-25.2,23.2-41.3,47.3-48.4c16.1-4.7,24.6-4.8,25.3,0
					c8.5,0,15.3,2.5,15.3,11S89.6,114.9,81.1,114.9z"/>
				
					<radialGradient id="Combined-Shape_14_" cx="-1251.427" cy="-157.8506" r="1.2874" gradientTransform="matrix(-93.674 15.9516 8.2667 48.5451 -115821.4062 27759.5254)" gradientUnits="userSpaceOnUse">
					<stop  offset="0" style="stop-color:#6FB3FB"/>
					<stop  offset="1" style="stop-color:#D7EAFB"/>
				</radialGradient>
				<path id="Combined-Shape_5_" class="st40" d="M6.5,145.2h21l1.1-6c1.3-3.9,3-7.3,5-10.3L15.3,120c-3.2,5.5-5.7,11.6-7.5,18.4
					L6.5,145.2z M5.9,148.3l-5.2,28.5c0,8.5,1.2,4.5,9.7,4.5s12.2-0.2,12.2-8.8l4.3-24.3h-21V148.3z M16.9,117.4l18.5,9
					c3.8-4.9,8.4-8.5,13.4-11.2l-5.9-20.6C32.1,99.9,23.3,107.5,16.9,117.4z M45.8,93.4l5.9,20.5c9-4.2,12.7-4,22.2-3.7
					c6.6,0.2,8.7,2,6.4,5.2c8.5,0,15.4-5.8,15.4-14.3s-6.8-11-15.3-11c-0.8-4.7-9.2-4.7-25.3,0C51.8,91,48.7,92.1,45.8,93.4z"/>
				<path id="Rectangle-30_1_" class="st39" d="M162.5,81.4c12.7,4.1,22.2,7,28.7,8.7c0.2,0,0.5,0.1,0.8,0.2
					c9.3,2.8,20.1-4.5,22.9-13.8c4.9-19.6,7.4-29.4,7.4-29.4s21.3,5.8,23.6,6.2c-2.2,7.3-4.6,16.4-7.2,27.3
					c-7.8,25.6-33.8,40.3-59.4,32.5l-24.2-7.4c-8.1-2.5-13.9-6.9-11.4-15C146.1,82.5,154.4,78.9,162.5,81.4z"/>
				
					<radialGradient id="Combined-Shape_15_" cx="-1255.7153" cy="-173.4868" r="1.2874" gradientTransform="matrix(76.642 11.5112 5.9655 -39.7185 97484.1953 7706.9854)" gradientUnits="userSpaceOnUse">
					<stop  offset="0" style="stop-color:#6FB3FB"/>
					<stop  offset="1" style="stop-color:#D7EAFB"/>
				</radialGradient>
				<path id="Combined-Shape_6_" class="st41" d="M240.5,74.1l-22.9-7c-0.7,2.9-1.6,6.1-2.5,9.5c-0.7,2.2-1.8,4.2-3.2,6.1L229,98.6
					c4.3-5.1,7.7-11.1,9.8-17.9C239.4,78.4,239.9,76.2,240.5,74.1z M241.2,71.1c1.9-7.2,3.6-13.3,5.2-18.5
					c-2.3-0.4-23.6-6.2-23.6-6.2s-1.8,6.9-5.3,20.6L241.2,71.1z M226.9,100.9l-17-15.9c-4.6,4.6-11.1,7.2-17.1,5.6l-0.4,24.6
					C205.5,115.5,217.9,110.2,226.9,100.9z M189.2,115.1l0.4-25.3c-6.4-1.7-15.4-4.5-27-8.2c-8.1-2.5-16.5,1-18.9,9.2
					c-2.5,8.1,3.3,12.5,11.4,15l24.2,7.4C182.6,114.2,185.9,114.8,189.2,115.1z"/>
				<path id="Rectangle-29" class="st42" d="M169.6,75.6L169.6,75.6c3.6,0.7,5.9,4.2,5.2,7.7l-5.9,30.3c-0.7,3.6-4.2,5.9-7.7,5.2
					l0,0c-3.6-0.7-5.9-4.2-5.2-7.7l5.9-30.3C162.5,77.2,166,74.9,169.6,75.6z"/>
				<path id="Rectangle-29_1_" class="st42" d="M63.7,76.2L63.7,76.2c-3.6,0.8-5.8,4.3-5.1,7.8l6.4,30.2c0.8,3.6,4.3,5.8,7.8,5.1
					l0,0c3.6-0.8,5.8-4.3,5.1-7.8l-6.4-30.2C70.8,77.7,67.3,75.4,63.7,76.2z"/>
				
					<g id="手" transform="translate(241.561535, 31.793376) scale(-1, 1) rotate(-17.000000) translate(-241.561535, -31.793376) translate(216.561535, 6.793376)">
					<path id="Combined-Shape_7_" class="st43" d="M25.4,39.9c1.7,1.6,1.7,4.3,0.1,6c-1.6,1.7-4.3,1.7-5.9,0.1L5,31.7
						c-0.7-0.7-1.1-1.5-1.2-2.4c-0.3-0.9-0.2-2,0.2-2.9l8.5-18.5c1-2.1,3.5-3,5.6-2s3,3.5,2,5.6l-7.4,16.1L25.4,39.9z M37.2,42.2
						c-0.7,0.8-11.1,0.3-10.5-0.4c2.5-3.1,6.1-7.9,11.1-14.2L32,10.9c-0.8-2.2,0.4-4.6,2.6-5.3C36.8,4.8,39.2,6,40,8.2l6.7,19.3
						c0.3,1,0.3,2-0.1,2.9c-0.2,0.9-0.7,1.7-1.5,2.3C41.2,37.3,38.6,40.5,37.2,42.2z"/>
					<path id="path-3" class="st44" d="M12.2,38.1l26.7,0c3.2,0,5.9,2.6,5.9,5.9l0,0c0,3.2-2.6,5.9-5.9,5.9l-26.7,0
						c-3.2,0-5.9-2.6-5.9-5.9l0,0C6.3,40.7,9,38.1,12.2,38.1z"/>
					<path id="Combined-Shape_8_" class="st44" d="M9.1,31.7c-1.9,0.3-3.8-1-4.1-2.9c-0.3-1.9,0.9-3.7,2.9-4.1
						c2-0.4,3.7,0.9,4.1,2.9C12.3,29.5,11,31.3,9.1,31.7z M42.1,31.2c-1.9,0.3-3.7-0.9-4.1-2.9c-0.3-1.9,0.9-3.7,2.9-4.1
						c1.9-0.3,3.7,0.9,4.1,2.9C45.3,29.1,44.1,30.9,42.1,31.2z"/>
					<path id="Rectangle-2_1_" class="st45" d="M10.7,38.1l29.7,0c2.4,0,4.4,2,4.4,4.4l0,0c0,2.4-2,4.4-4.4,4.4l-29.7,0
						c-2.4,0-4.4-2-4.4-4.4l0,0C6.3,40.1,8.3,38.1,10.7,38.1z"/>
				</g>
			</g>
			<path id="Combined-Shape_9_" class="st44" d="M101,117.7h-7.8l0,0c-2.2,0-4,1.8-4,4l0,6.3c0,2.2,1.8,4,4,4l45.9,0
				c2.2,0,4-1.8,4-4v-6.3c0-2.2-1.8-4-4-4h-7.3l-0.5-13.3h-30.8L101,117.7z"/>
			<path id="Rectangle-27-Copy" class="st45" d="M93.1,117.7l45.9,0l0,0c2.2,0,4,1.8,4,4v0.4l-53.9,0v-0.4l0,0
				C89.1,119.5,90.9,117.7,93.1,117.7z"/>
			<g id="肚子" transform="translate(64.493056, 126.104264)">
				
					<linearGradient id="Rectangle-36_1_" gradientUnits="userSpaceOnUse" x1="-1400.2061" y1="-180.917" x2="-1399.9462" y2="-180.1099" gradientTransform="matrix(104.7632 0 1.570802e-05 111.4902 146742.1719 20172.752)">
					<stop  offset="0" style="stop-color:#F8FEFF"/>
					<stop  offset="1" style="stop-color:#BDD9FF"/>
				</linearGradient>
				<path id="Rectangle-36" class="st46" d="M10.1,0.2l84.8,0.3l0,0c5.5,0,10,4.5,10,10c0,0.6-0.1,1.2-0.2,1.8L88,102.4l0,0
					c-1,5.2-5.5,9-10.8,9l-47.9,0.3l0,0c-5.3,0-9.8-3.7-10.8-8.8L0.2,12.2l0,0c-1-5.4,2.5-10.7,7.9-11.8C8.7,0.3,9.4,0.2,10.1,0.2z"
					/>
				<path id="Rectangle-34" class="st47" d="M31.4,22.9l40.7,0l0,0c2.2,0,4,1.8,4,4V27l-1.6,50.7l0,0c-0.1,2.2-1.8,3.9-4,3.9
					l-36.1,0l0,0c-2.1,0-3.9-1.6-4-3.8l-3-50.7l0,0c-0.1-2.2,1.6-4.1,3.8-4.2C31.2,22.9,31.3,22.9,31.4,22.9z"/>
				<path id="Rectangle-35" class="st48" d="M27.1,39.1h4.1c1.7,0,3,1.3,3,3v1.3c0,1.7-1.3,3-3,3h-4.1c-1.7,0-3-1.3-3-3v-1.3
					C24.1,40.5,25.5,39.1,27.1,39.1z"/>
				<path id="Rectangle-35_1_" class="st48" d="M28.1,61.5h4.1c1.7,0,3,1.3,3,3v1.3c0,1.7-1.3,3-3,3h-4.1c-1.7,0-3-1.3-3-3v-1.3
					C25.1,62.8,26.4,61.5,28.1,61.5z"/>
			</g>
			
				<g id="天线" transform="translate(115.884285, 23.193170) rotate(47.000000) translate(-115.884285, -23.193170) translate(99.384285, 7.193170)">
				<path id="Path-5" class="st49" d="M4.8,16.8L4.1,11l18.5-1.2l0,0c1.1-0.1,2,0.7,2.1,1.8l1.7,14.1l-5.1,2.5l-1.1-10.8l0,0
					c-0.1-1.1-1.1-1.9-2.2-1.8L4.8,16.8z"/>
				<path id="Rectangle-32" class="st50" d="M4.9,1.8L4.9,1.8c2.7,0,4.9,2.2,4.9,4.9l0,15.9c0,2.7-2.2,4.9-4.9,4.9l0,0
					c-2.7,0-4.9-2.2-4.9-4.9l0-16C0,3.9,2.2,1.8,4.9,1.8z"/>
				<path id="Rectangle-32_1_" class="st51" d="M4.8,1.8L4.8,1.8L4.8,1.8c2.7,0,4.8,2.2,4.8,4.8l0.1,10.6l0,0c0,2.7-2.1,4.8-4.8,4.8
					l0,0l0,0l0,0c-2.7,0-4.8-2.2-4.8-4.8L0,6.6l0,0C0,3.9,2.1,1.8,4.8,1.8L4.8,1.8z"/>
			</g>
			
				<g id="头" transform="translate(115.623685, 69.135465) rotate(-345.000000) translate(-115.623685, -69.135465) translate(70.123685, 20.635465)">
				
					<linearGradient id="Rectangle-26_1_" gradientUnits="userSpaceOnUse" x1="-1336.5493" y1="4.6383" x2="-1335.8456" y2="5.5417" gradientTransform="matrix(69.3075 -18.5709 20.6928 77.2265 92542.5 -25156.2246)">
					<stop  offset="0" style="stop-color:#EAF3FE"/>
					<stop  offset="1" style="stop-color:#9FCFFF"/>
				</linearGradient>
				<path id="Rectangle-26" class="st52" d="M34.9,10.3L34.9,10.3L34.9,10.3c19.1-5.1,38.7,6.1,44,25.1l10.8,38.8l0,0
					c0.6,2.1-0.7,4.3-2.8,4.9h-0.1L25.4,94.7l0,0c-2.1,0.5-4.3-0.7-4.8-2.8L10,53.9l0,0c-5.2-18.8,5.8-38.3,24.6-43.5
					C34.7,10.3,34.8,10.3,34.9,10.3z"/>
				<path id="Oval-26" class="st53" d="M41.4,62.1c1.2,4.5,5.5,7.2,9.7,6.1s6.6-5.7,5.4-10.1c-0.1-0.5-0.6-0.7-1.1-0.6
					S42.5,60.9,42,61S41.3,61.6,41.4,62.1z"/>
				
					<linearGradient id="Combined-Shape_16_" gradientUnits="userSpaceOnUse" x1="-1334.3192" y1="5.8872" x2="-1335.082" y2="6.0964" gradientTransform="matrix(82.1207 0 0 70.2876 109650.1328 -366.6035)">
					<stop  offset="0" style="stop-color:#BDD9FF"/>
					<stop  offset="1" style="stop-color:#5CA4EC"/>
				</linearGradient>
				<path id="Combined-Shape_10_" class="st54" d="M89.3,72.7l1.5,5.4L21.7,95.7L10,53.9l0,0c-2.8-10.1-1-20.3,4.3-28.5
					c-2.5,6.8-3,14.4-1,21.9l0,0L25,89.1L89.3,72.7z"/>
				<path id="Oval-27" class="st16" d="M51.4,12.1c-2.1-0.9-4.5-1.4-7-1.4c-2.1,0-4.2,0.4-6.1,1c-0.7,0.3-1.1,1-0.8,1.8
					s1,1.1,1.8,0.8c1.6-0.6,3.3-0.9,5.1-0.9c2.1,0,4.1,0.4,5.9,1.2c0.7,0.3,1.5,0,1.8-0.7S52.1,12.4,51.4,12.1z"/>
				<g id="eye" transform="translate(0.922535, 37.435205)">
					<circle id="Oval-22" class="st55" cx="16" cy="16.1" r="16"/>
					<circle id="Oval-23" class="st56" cx="16" cy="16.1" r="11.6"/>
					
						<radialGradient id="Oval-24_2_" cx="-1339.0331" cy="27.1639" r="1.016" gradientTransform="matrix(14.4309 0 0 14.4309 19342.0859 -383.0363)" gradientUnits="userSpaceOnUse">
						<stop  offset="0" style="stop-color:#B0B6B8"/>
						<stop  offset="1" style="stop-color:#3D4A51"/>
					</radialGradient>
					<circle id="Oval-24" class="st57" cx="16" cy="16.2" r="7.2"/>
					<circle id="Oval-25" class="st16" cx="20.4" cy="11.7" r="2.8"/>
				</g>
				<g id="eye_1_" transform="translate(56.724392, 21.604672)">
					<circle id="Oval-22_1_" class="st58" cx="16" cy="16.1" r="16"/>
					<circle id="Oval-23_1_" class="st56" cx="16" cy="16.1" r="11.6"/>
					
						<radialGradient id="Oval-24_3_" cx="-1450.6368" cy="27.1639" r="1.016" gradientTransform="matrix(14.4309 0 0 14.4309 20952.6309 -383.0355)" gradientUnits="userSpaceOnUse">
						<stop  offset="0" style="stop-color:#B0B6B8"/>
						<stop  offset="1" style="stop-color:#3D4A51"/>
					</radialGradient>
					<circle id="Oval-24_1_" class="st59" cx="16" cy="16.2" r="7.2"/>
					<circle id="Oval-25_1_" class="st16" cx="20.4" cy="11.7" r="2.8"/>
				</g>
			</g>
		</g>
	</g>
	<path id="Rectangle-Copy" class="st60" d="M396.9,295.4l-31.8,17.2c-1.1,0.6-1.9,2.3-1.9,3.9v32c0,1.6,0.8,2.5,1.9,1.9l31.8-16.7
		c1.1-0.5,1.9-2.3,1.9-3.9v-32.3C398.7,295.7,397.8,295,396.9,295.4z"/>
	<path id="Rectangle" class="st61" d="M403.4,297.8l-31.8,17c-1.1,0.6-1.9,2.3-1.9,3.9v32c0,1.6,0.8,2.5,1.9,1.9l21.5-11.2l5.6,4.1
		v-7l4.7-2.5c1.1-0.5,1.9-2.3,1.9-3.9v-32.4C405.3,297.9,404.4,297.1,403.4,297.8z"/>
	<path id="Rectangle-Copy_1_" class="st62" d="M323.7,262.8l-42.4,22.8c-1.4,0.8-2.5,3.1-2.5,5.1v42.7c0,2.2,1.1,3.3,2.5,2.5
		l42.4-22.3c1.4-0.8,2.5-3.1,2.5-5.1v-43.2C326.2,263.3,325.1,262.2,323.7,262.8z"/>
	<path id="Rectangle_1_" class="st63" d="M329.8,268l-42.4,22.8c-1.4,0.8-2.5,3.1-2.5,5.1v42.7c0,2.2,1.1,3.3,2.5,2.5l28.7-15
		l7.5,5.3v-9.4l6.2-3.3c1.4-0.8,2.5-3.1,2.5-5.1v-43.2C332.3,268.3,331.2,267.2,329.8,268z"/>
	<g id="消息" transform="translate(10.864796, 33.316509)">
		<path id="Rectangle-Copy_2_" class="st64" d="M193.9,266.7l23.2,15.6c0.9,0.6,1.7,2,1.7,3.3v28.1c0,1.2-0.8,1.7-1.7,1.1
			l-23.2-15.6c-0.9-0.6-1.7-2-1.7-3.3v-28.1C192.4,266.7,193.2,266,193.9,266.7z"/>
		<path id="Rectangle_2_" class="st65" d="M188.8,269.8l23.2,15.6c0.9,0.6,1.7,2,1.7,3.3v28.1c0,1.2-0.8,1.7-1.7,1.1l-15.8-10.6
			l-4.2,1.7v-4.5l-3.3-2.2c-0.9-0.6-1.7-2-1.7-3.3v-28.1C187.2,269.6,188,269.2,188.8,269.8z"/>
	</g>
	
		<radialGradient id="Oval-17_2_" cx="48.9911" cy="8.163" r="1.1766" gradientTransform="matrix(50 0 0 50 -2053 -76)" gradientUnits="userSpaceOnUse">
		<stop  offset="0" style="stop-color:#19093A;stop-opacity:0"/>
		<stop  offset="0.7494" style="stop-color:#B28347;stop-opacity:0.1218"/>
		<stop  offset="1" style="stop-color:#D2BF68"/>
	</radialGradient>
	<circle id="Oval-17" class="st66" cx="385.2" cy="319.3" r="39"/>
	
		<linearGradient id="Oval-17-Copy-2_1_" gradientUnits="userSpaceOnUse" x1="47.8176" y1="8.9141" x2="46.7277" y2="9.9369" gradientTransform="matrix(42.0413 0 0 42.0413 -1775.9825 -69.0387)">
		<stop  offset="0" style="stop-color:#AA44B6;stop-opacity:0.2646"/>
		<stop  offset="0.1173" style="stop-color:#190A1B;stop-opacity:3.956750e-02"/>
		<stop  offset="1" style="stop-color:#000000;stop-opacity:0"/>
	</linearGradient>
	<circle id="Oval-17-Copy-2" class="st67" cx="211.7" cy="326.9" r="32.8"/>
	<g>
		<g>
			<path class="st16" d="M311.6,283.6c2.3-1.2,7-3,6.9,1.4v8.1c0,2.8-1.9,6.1-4.4,7.5l-4.2,2.5l-4.4,2.5c-2.3,1.4-4.4,4.7-4.4,7.5
				v5.1l-3,1.7c0,0,0,0-0.2,0c-2.7,1.6-4.4-1.6-4.4-5v-3.1c0-3.9,1.6-8.9,4.7-10.6l11.9-6.9v-1.4l-8.1,4.7v-4.4
				c-0.2-3.1,4.5-6.7,6.6-8L311.6,283.6z M305.8,293.2c0.8-0.5,1.4-1.6,1.4-2.5c0-0.9-0.6-1.2-1.4-0.8c-0.8,0.5-1.4,1.6-1.4,2.5
				C304.4,293.2,305,293.7,305.8,293.2"/>
		</g>
		<g>
			<path class="st16" d="M322.6,286.8c2.7-1.6,4.4,1.6,4.4,5v3.1c0,3.9-1.6,8.9-4.7,10.6l-11.9,6.9v1.4l8.1-4.7v4.4
				c0.2,3.1-4.5,6.7-6.6,8l-2.8,1.6c-2.3,1.2-7,3-6.9-1.4v-8.1c0-2.8,1.9-6.1,4.4-7.5l4.2-2.5l4.4-2.5c2.3-1.4,4.4-4.7,4.4-7.5v-5.1
				L322.6,286.8C322.5,286.8,322.6,286.8,322.6,286.8z M315.1,313.4c-0.8,0.5-1.4,1.6-1.4,2.5c0,0.9,0.6,1.2,1.4,0.8
				s1.4-1.6,1.4-2.5C316.5,313.4,315.9,312.9,315.1,313.4"/>
		</g>
	</g>
	
		<radialGradient id="Oval-17_3_" cx="49.0668" cy="6.7742" r="2" gradientTransform="matrix(63.7152 0 0 63.7152 -2769.3289 -95.0193)" gradientUnits="userSpaceOnUse">
		<stop  offset="0" style="stop-color:#FFFFFF;stop-opacity:0"/>
		<stop  offset="0.6464" style="stop-color:#323131;stop-opacity:0"/>
		<stop  offset="0.7701" style="stop-color:#2C7971;stop-opacity:0.2707"/>
		<stop  offset="1" style="stop-color:#8BC8D1"/>
	</radialGradient>
	<circle id="Oval-17_1_" class="st68" cx="303.6" cy="302.8" r="49.8"/>
	<g>
		<g>
			<polygon class="st69" points="392.7,308.7 393,308.8 393,313.8 397,311.5 397.2,311.6 397.2,311.6 392.7,314.3 			"/>
		</g>
		<g class="st70">
			<g>
				<path class="st69" d="M397.2,327.2v-2.7l0.3-0.2v2.7c0,1.7-1.2,3.9-2.8,4.8l-13.7,8c-1.6,0.9-2.8,0.2-2.8-1.6v-2.7l0.3-0.2v2.7
					c0,1.6,1.1,2.3,2.5,1.4l13.7-8C396.1,330.8,397.2,329,397.2,327.2z"/>
			</g>
			<g>
				<path class="st16" d="M397.5,315.1l0.9-0.5v9.5l-0.9,0.5l-0.3,0.2l-18.9,10.9l-0.3,0.2l-0.6,0.3v-9.5l0.8-0.5l0.3-0.2l18.9-10.9
					H397.5z M389.9,328.5c0.2-0.2,0.5-0.5,0.6-0.8l-0.5-0.6c-0.2,0.2-0.2,0.3-0.3,0.5c-0.2,0.2-0.3,0.3-0.3,0.3
					c-0.2,0-0.2,0.2-0.3,0.2c-0.2,0-0.2,0-0.3,0c0,0-0.2,0-0.2-0.2c0,0-0.2-0.2-0.2-0.3c0.3-0.2,0.5-0.5,0.8-0.8
					c0.2-0.3,0.5-0.6,0.6-1.1c0.2-0.3,0.3-0.8,0.3-1.2c0.2-0.5,0.2-0.9,0.2-1.4c0-1.1-0.2-1.9-0.6-2.2c-0.3-0.3-0.9-0.3-1.7,0.2
					c-0.3,0.2-0.6,0.5-0.9,0.8s-0.5,0.6-0.8,1.1c-0.2,0.5-0.3,0.9-0.5,1.4c-0.2,0.5-0.2,1.1-0.2,1.7c0,0.9,0.2,1.7,0.5,2
					c0.3,0.3,0.8,0.5,1.4,0.3c0,0.3,0,0.6,0.2,0.8c0.2,0.2,0.2,0.3,0.3,0.3c0.2,0,0.3,0,0.6,0c0.2,0,0.5-0.2,0.8-0.3
					C389.4,329,389.7,328.7,389.9,328.5 M384.1,329c0.2-0.3,0.2-0.6,0.2-1.1c0-0.3,0-0.5-0.2-0.6c-0.2-0.2-0.2-0.3-0.3-0.3
					c-0.2,0-0.3-0.2-0.5-0.2c-0.2,0-0.3,0-0.5,0c-0.2,0-0.3,0-0.5,0.2c-0.2,0-0.3,0-0.5,0c-0.2,0-0.3,0-0.3-0.2
					c-0.2,0-0.2-0.2-0.2-0.3c0-0.2,0-0.2,0-0.3c0-0.2,0.2-0.2,0.2-0.3c0.2-0.2,0.2-0.2,0.3-0.3c0.2-0.2,0.3-0.2,0.5-0.3
					c0.2,0,0.2-0.2,0.3-0.2c0.2,0,0.3-0.2,0.3-0.2c0.2,0,0.3-0.2,0.3-0.2c0.2,0,0.2,0,0.3,0v-1.1c-0.2,0-0.2,0-0.3,0.2
					c-0.2,0-0.2,0.2-0.3,0.2c-0.2,0-0.3,0.2-0.3,0.2c-0.2,0-0.3,0.2-0.3,0.2c-0.5,0.2-0.8,0.5-0.9,0.8c-0.3,0.3-0.5,0.5-0.6,0.8
					c-0.2,0.3-0.3,0.6-0.3,0.8c-0.2,0.3-0.2,0.6-0.2,0.8c0,0.3,0,0.5,0.2,0.6c0.2,0.2,0.2,0.3,0.3,0.3c0.2,0,0.3,0.2,0.5,0.2
					c0.2,0,0.3,0,0.5,0c0.2,0,0.3,0,0.5-0.2c0.2,0,0.3,0,0.5,0c0.2,0,0.3,0,0.3,0.2c0.2,0,0.2,0.2,0.2,0.3c0,0.2,0,0.3,0,0.3
					c0,0.2-0.2,0.3-0.2,0.3c-0.2,0.2-0.2,0.3-0.3,0.3c-0.2,0.2-0.3,0.3-0.5,0.3c-0.2,0.2-0.3,0.2-0.5,0.2c-0.2,0-0.3,0.2-0.5,0.2
					c-0.2,0-0.3,0.2-0.5,0.2c-0.2,0-0.3,0-0.5,0.2v1.2c0.3,0,0.6-0.2,0.8-0.3c0.3-0.2,0.6-0.3,0.9-0.5c0.3-0.2,0.6-0.5,0.9-0.6
					c0.3-0.3,0.5-0.5,0.8-0.8C383.8,329.6,383.9,329.3,384.1,329 M395.6,323.3v-1.1l-2.5,1.4V318l-1.1,0.6v6.7L395.6,323.3"/>
			</g>
		</g>
		<g>
			<path class="st16" d="M388.8,325.7c-0.2,0.3-0.2,0.5-0.3,0.6c-0.2,0.2-0.3,0.3-0.5,0.5c-0.5,0.3-0.8,0.2-0.9,0
				c-0.2-0.3-0.3-0.8-0.3-1.6c0-0.3,0-0.8,0-0.9c0-0.3,0.2-0.6,0.2-0.8c0.2-0.3,0.2-0.5,0.3-0.6c0.2-0.2,0.3-0.3,0.5-0.5
				c0.5-0.3,0.8-0.2,0.9,0c0.2,0.3,0.3,0.8,0.3,1.6c0,0.3,0,0.8,0,1.1C389.1,325.2,388.9,325.4,388.8,325.7z"/>
		</g>
		<g>
			<path class="st69" d="M392.8,308.2l4.5,3.1v3.7l-0.3,0.2v-3.4v-0.2l-0.2-0.2l-4.1-2.8l-0.2-0.2l0,0l-11.9,6.9
				c-1.4,0.8-2.5,2.8-2.5,4.4v6.1L378,326v-6.1c0-1.7,1.2-3.9,2.8-4.8L392.8,308.2z"/>
		</g>
	</g>
	<g>
		<g>
			<path class="st16" d="M202.5,315.1l10.1,3.9v19.3l-10.1-7.6V315.1z M210.6,331.3l-2.2-5.1l2.2-2.7l-1.7-0.9l-1.2,1.6l-1.2-3
				l-1.7-0.9l2.2,5.1l-2.2,2.7l1.7,0.9l1.2-1.6l1.2,3L210.6,331.3"/>
		</g>
		<g>
			<path class="st16" d="M217.7,323.8c0.9,0.6,1.7,1.9,1.7,3v11.5c0,1.1-0.8,1.6-1.7,0.9l-4.2-2.3v-2.8l1.7,0.9v-0.9l-1.7-0.9v-2
				l1.7,0.9v-0.9l-1.7-0.9v-2l1.7,0.9v-0.9l-1.7-0.9v-1.9l1.7,0.9v-0.9l-1.7-0.9v-3L217.7,323.8z M217.7,336.6v-0.9l-1.9-1.1v0.9
				L217.7,336.6 M217.7,333.6v-0.9l-1.9-1.1v0.9L217.7,333.6 M217.8,330.7v-0.9l-1.9-1.1v0.9L217.8,330.7 M217.8,327.7v-0.9
				l-1.9-1.1v0.9L217.8,327.7"/>
		</g>
	</g>
</g>
</svg>
